<svg width="16" height="17" viewBox="0 0 16 17" fill="none" xmlns="http://www.w3.org/2000/svg">
<g id="Amazon">
<path id="Vector" d="M14.6655 12.6533C14.6655 13.138 14.3955 14.0713 13.7889 14.584C13.6675 14.6773 13.5462 14.6247 13.5995 14.4887C13.7762 14.0567 14.1802 13.0573 13.9909 12.8273C13.8569 12.6527 13.3035 12.666 12.8315 12.706C12.6162 12.7333 12.4269 12.746 12.2802 12.776C12.1442 12.7867 12.1169 12.6673 12.2529 12.574C12.43 12.449 12.6257 12.3527 12.8329 12.2887C13.5995 12.0593 14.4855 12.1973 14.6129 12.344C14.6369 12.372 14.6655 12.4513 14.6655 12.6533ZM13.3842 13.5153C13.2084 13.6498 13.0237 13.7723 12.8315 13.882C11.4169 14.732 9.58419 15.1773 7.99286 15.1773C5.43086 15.1773 3.13952 14.2327 1.40086 12.652C1.25152 12.5307 1.37486 12.3547 1.54952 12.45C3.42286 13.5433 5.74152 14.2047 8.14152 14.2047C9.65219 14.2047 11.2802 13.922 12.8315 13.314C12.9402 13.2733 13.0615 13.218 13.1675 13.1793C13.4122 13.0693 13.6275 13.3407 13.3842 13.5153ZM9.27086 6.162C9.27086 5.468 9.29886 5.05933 9.06886 4.70867C8.86486 4.42 8.51352 4.24667 8.02286 4.274C7.49086 4.30333 6.91952 4.652 6.77419 5.29133C6.74552 5.438 6.66019 5.582 6.48286 5.61333L4.85952 5.40667C4.74352 5.38 4.56686 5.29133 4.62486 5.05933C4.97352 3.22533 6.54086 2.586 8.02352 2.5H8.37152C9.18486 2.5 10.2302 2.73267 10.8989 3.34267C11.7102 4.1 11.6235 5.11733 11.6235 6.22267V8.84067C11.6235 9.626 11.9422 9.974 12.2622 10.3833C12.3489 10.5293 12.3789 10.7013 12.2329 10.82C11.8129 11.1945 11.3868 11.5621 10.9549 11.9227C10.8382 12.0113 10.6289 12.0207 10.5482 11.9527C10.0349 11.5227 9.90952 11.284 9.59152 10.8473C9.03819 11.428 8.57352 11.7487 8.02086 11.9227C7.63219 12.0213 7.23249 12.0697 6.83152 12.0667C5.43819 12.0667 4.33486 11.198 4.33486 9.48C4.33486 8.114 5.06152 7.18533 6.13486 6.746C7.20819 6.306 8.76819 6.166 9.27086 6.16333M8.95286 9.62467C9.29952 9.04333 9.27086 8.56733 9.27086 7.50133C8.83619 7.50133 8.40019 7.53133 8.02352 7.62C7.32686 7.822 6.77352 8.26 6.77352 9.19C6.77352 9.91667 7.15219 10.4113 7.79086 10.4113C7.87886 10.4113 7.95619 10.4007 8.02286 10.3813C8.46952 10.2573 8.74819 10.0333 8.95286 9.62467Z" fill="#FFB45E"/>
</g>
</svg>
