<svg width="12" height="12" viewBox="0 0 12 12" fill="none" xmlns="http://www.w3.org/2000/svg">
<g id="Book">
<path id="Icon (Stroke)" fill-rule="evenodd" clip-rule="evenodd" d="M2 3.40964V8.81298C2.52684 8.61119 3.12384 8.5 3.75 8.5C4.37616 8.5 4.97316 8.61119 5.5 8.81298V3.40964C5.03025 3.15829 4.42405 3 3.75 3C3.07595 3 2.46975 3.15829 2 3.40964ZM6.5 3.40964V8.81298C7.02684 8.61119 7.62384 8.5 8.25 8.5C8.87616 8.5 9.47316 8.61119 10 8.81298V3.40964C9.53025 3.15829 8.92405 3 8.25 3C7.57595 3 6.96975 3.15829 6.5 3.40964ZM6 2.54315C5.36635 2.19727 4.58403 2 3.75 2C2.78996 2 1.89845 2.26138 1.22331 2.70992C1.08383 2.80259 1 2.95893 1 3.12639V9.62639C1 9.81065 1.10134 9.97997 1.26372 10.067C1.4261 10.1541 1.62322 10.1448 1.77669 10.0429C2.26945 9.71548 2.96355 9.5 3.75 9.5C4.53645 9.5 5.23055 9.71548 5.72331 10.0429C5.89096 10.1542 6.10904 10.1542 6.27669 10.0429C6.76945 9.71548 7.46355 9.5 8.25 9.5C9.03645 9.5 9.73055 9.71548 10.2233 10.0429C10.3768 10.1448 10.5739 10.1541 10.7363 10.067C10.8987 9.97997 11 9.81065 11 9.62639V3.12639C11 2.95893 10.9162 2.80259 10.7767 2.70992C10.1016 2.26138 9.21004 2 8.25 2C7.41597 2 6.63366 2.19727 6 2.54315Z" fill="white"/>
</g>
</svg>
