<svg width="32" height="33" viewBox="0 0 32 33" fill="none" xmlns="http://www.w3.org/2000/svg">
<g id="Brain">
<path id="Vector" d="M28.4401 17.7133C28.5601 19.78 27.6134 21.7666 25.9201 22.98L26.9467 24.9666C27.2534 25.5666 27.2934 26.2733 27.0267 26.9C26.7734 27.5266 26.2534 28.02 25.6134 28.2333L24.5601 28.5666C24.1215 28.7144 23.648 28.7233 23.2041 28.592C22.7603 28.4608 22.3678 28.1958 22.0801 27.8333L19.2534 24.5C18.0667 24.3 16.9467 23.7933 16.0001 23.0333C15.3334 23.2333 14.6667 23.34 14.0001 23.34C12.8267 23.34 11.6534 22.98 10.6667 22.2866C9.96008 22.5 9.24008 22.5933 8.50674 22.58C7.45341 22.5933 6.41341 22.38 5.44008 21.98C4.50319 21.5619 3.70266 20.889 3.12978 20.038C2.55691 19.1869 2.23476 18.192 2.20008 17.1666C2.09341 16.2066 2.25341 15.2333 2.66674 14.3533C2.28008 13.3533 2.24008 12.26 2.57341 11.2466C3.06674 9.97997 4.00008 8.92664 5.16008 8.25997C5.93341 6.00664 8.10674 4.49997 10.4934 4.65997C12.6267 2.65997 15.8934 2.44664 18.2667 4.16664C18.8267 4.01997 19.4134 3.93997 20.0001 3.93997C21.8134 3.89997 23.5334 4.69997 24.6667 6.12664C27.3867 6.83331 29.3334 9.25997 29.4401 12.0866C29.5067 13.5666 29.1067 15.02 28.2934 16.26C28.3867 16.74 28.4401 17.22 28.4401 17.7133ZM21.7734 15.8333C22.5334 15.9266 23.1334 16.5 23.1334 17.26C23.1334 17.6136 22.9929 17.9527 22.7429 18.2028C22.4928 18.4528 22.1537 18.5933 21.8001 18.5933H20.9601C20.5334 19.7933 19.7867 20.8466 18.8001 21.6466C19.1334 21.7666 19.4801 21.8333 19.8267 21.9266C26.6667 21.8333 25.8667 17.66 25.8667 17.5933C25.8314 16.6774 25.4336 15.8131 24.761 15.1905C24.0884 14.5679 23.1959 14.238 22.2801 14.2733C21.9265 14.2733 21.5873 14.1328 21.3373 13.8828C21.0872 13.6327 20.9467 13.2936 20.9467 12.94C20.9467 12.5864 21.0872 12.2472 21.3373 11.9972C21.5873 11.7471 21.9265 11.6066 22.2801 11.6066C23.9201 11.6466 25.4934 12.26 26.7201 13.34C26.7867 12.9533 26.8267 12.5533 26.8267 12.1533C26.7467 10.5 26.0001 9.05997 23.0001 8.77997C21.3334 4.83331 17.1334 7.01997 17.1334 8.24664C17.0934 8.55331 17.4134 9.20664 17.4667 9.24664C17.8204 9.24664 18.1595 9.38712 18.4096 9.63716C18.6596 9.88721 18.8001 10.2264 18.8001 10.58C18.8001 11.3133 18.2001 11.9133 17.4667 11.9133C16.7601 11.8866 16.0934 11.62 15.5601 11.1666C14.9201 11.58 14.1867 11.8333 13.4267 11.9133C12.6667 11.98 12.0401 11.4466 12.0001 10.7133C11.9755 10.5391 11.9868 10.3618 12.0333 10.1921C12.0797 10.0225 12.1604 9.86413 12.2703 9.72678C12.3801 9.58943 12.5169 9.47599 12.6722 9.39342C12.8275 9.31086 12.9981 9.26091 13.1734 9.24664C13.3867 9.21997 14.4267 9.05997 14.4267 8.21997C14.4267 7.33997 14.7601 6.49997 15.3334 5.83331C14.1067 5.49997 12.7867 5.93997 11.4534 7.55331C9.00008 7.16664 8.00008 7.49997 7.26674 10.1C6.00008 10.7266 5.33341 11.1666 5.04008 12.5C6.48008 12.2066 7.96008 12.3266 9.33341 12.8333C10.0001 13.0866 10.3734 13.8333 10.1201 14.5533C9.86674 15.2466 9.09341 15.5933 8.40008 15.34C7.42674 14.9133 6.33341 14.8866 5.33341 15.26C4.90674 15.62 4.90674 16.3666 4.90674 16.9533C4.90674 17.94 5.40008 18.86 6.24008 19.3933C6.94674 19.7533 7.73341 19.94 8.52008 19.9266C8.32008 19.58 8.14674 19.22 8.00008 18.8466C7.89511 18.5041 7.92708 18.1342 8.08927 17.8147C8.25146 17.4952 8.53122 17.2511 8.86971 17.1336C9.20821 17.0162 9.57905 17.0346 9.90425 17.185C10.2295 17.3354 10.4837 17.606 10.6134 17.94C11.1467 19.46 12.5067 20.5 14.1067 20.6733C15.9334 20.58 17.5601 19.5 18.3601 17.8333C18.6667 15.9933 20.1467 15.8333 21.7734 15.8333ZM24.4401 25.7933L23.6134 24.06L22.6667 24.2733L24.0001 25.94L24.4401 25.7933ZM18.2401 14.3133C18.2517 13.9727 18.1324 13.6406 17.9067 13.3852C17.6811 13.1298 17.3662 12.9704 17.0267 12.94C16.0801 12.8866 15.1601 13.2066 14.4534 13.8333C13.6934 14.6066 13.2934 15.6733 13.3334 16.7533C13.3334 17.1069 13.4739 17.4461 13.7239 17.6961C13.974 17.9462 14.3131 18.0866 14.6667 18.0866C15.4267 18.0866 16.0001 17.4866 16.0001 16.7533C16.0001 16.3933 16.0934 16.0333 16.3067 15.74C16.4667 15.6066 16.6667 15.54 16.8801 15.54C17.6134 15.58 18.2401 15.0333 18.2401 14.3133Z" fill="url(#paint0_linear_685_15076)"/>
</g>
<defs>
<linearGradient id="paint0_linear_685_15076" x1="2.16797" y1="15.845" x2="28.1072" y2="9.94929" gradientUnits="userSpaceOnUse">
<stop offset="0.135" stop-color="#7A3080"/>
<stop offset="1" stop-color="#009BBB"/>
</linearGradient>
</defs>
</svg>
