<svg width="12" height="12" viewBox="0 0 12 12" fill="none" xmlns="http://www.w3.org/2000/svg">
<g id="Calendar">
<path id="Icon (Stroke)" fill-rule="evenodd" clip-rule="evenodd" d="M4 1C4.27614 1 4.5 1.22386 4.5 1.5V2H7.5V1.5C7.5 1.22386 7.72386 1 8 1C8.27614 1 8.5 1.22386 8.5 1.5V2H9.5C10.3284 2 11 2.67157 11 3.5V9.5C11 10.3284 10.3284 11 9.5 11H2.5C1.67157 11 1 10.3284 1 9.5V3.5C1 2.67157 1.67157 2 2.5 2H3.5V1.5C3.5 1.22386 3.72386 1 4 1ZM3.5 3H2.5C2.22386 3 2 3.22386 2 3.5V9.5C2 9.77614 2.22386 10 2.5 10H9.5C9.77614 10 10 9.77614 10 9.5V3.5C10 3.22386 9.77614 3 9.5 3H8.5V3.5C8.5 3.77614 8.27614 4 8 4C7.72386 4 7.5 3.77614 7.5 3.5V3H4.5V3.5C4.5 3.77614 4.27614 4 4 4C3.72386 4 3.5 3.77614 3.5 3.5V3ZM3 5.5C3 5.22386 3.22386 5 3.5 5H8.5C8.77614 5 9 5.22386 9 5.5C9 5.77614 8.77614 6 8.5 6H3.5C3.22386 6 3 5.77614 3 5.5Z" fill="white"/>
</g>
</svg>
