<svg width="10" height="10" viewBox="0 0 10 10" fill="none" xmlns="http://www.w3.org/2000/svg">
<g id="Calendar" clip-path="url(#clip0_3016_9300)">
<path id="Icon (Stroke)" fill-rule="evenodd" clip-rule="evenodd" d="M3.33398 0.833252C3.5641 0.833252 3.75065 1.0198 3.75065 1.24992V1.66659H6.25065V1.24992C6.25065 1.0198 6.4372 0.833252 6.66732 0.833252C6.89744 0.833252 7.08398 1.0198 7.08398 1.24992V1.66659H7.91732C8.60767 1.66659 9.16732 2.22623 9.16732 2.91659V7.91659C9.16732 8.60694 8.60767 9.16659 7.91732 9.16659H2.08398C1.39363 9.16659 0.833984 8.60694 0.833984 7.91659V2.91659C0.833984 2.22623 1.39363 1.66659 2.08398 1.66659H2.91732V1.24992C2.91732 1.0198 3.10387 0.833252 3.33398 0.833252ZM2.91732 2.49992H2.08398C1.85387 2.49992 1.66732 2.68647 1.66732 2.91659V7.91659C1.66732 8.1467 1.85387 8.33325 2.08398 8.33325H7.91732C8.14744 8.33325 8.33398 8.1467 8.33398 7.91659V2.91659C8.33398 2.68647 8.14744 2.49992 7.91732 2.49992H7.08398V2.91659C7.08398 3.1467 6.89744 3.33325 6.66732 3.33325C6.4372 3.33325 6.25065 3.1467 6.25065 2.91659V2.49992H3.75065V2.91659C3.75065 3.1467 3.5641 3.33325 3.33398 3.33325C3.10387 3.33325 2.91732 3.1467 2.91732 2.91659V2.49992ZM2.50065 4.58325C2.50065 4.35313 2.6872 4.16659 2.91732 4.16659H7.08398C7.3141 4.16659 7.50065 4.35313 7.50065 4.58325C7.50065 4.81337 7.3141 4.99992 7.08398 4.99992H2.91732C2.6872 4.99992 2.50065 4.81337 2.50065 4.58325Z" fill="#6A646B"/>
</g>
<defs>
<clipPath id="clip0_3016_9300">
<rect width="10" height="10" fill="white"/>
</clipPath>
</defs>
</svg>
