<svg width="10" height="10" viewBox="0 0 10 10" fill="none" xmlns="http://www.w3.org/2000/svg">
<path fill-rule="evenodd" clip-rule="evenodd" d="M5 9C7.20914 9 9 7.20914 9 5C9 2.79086 7.20914 1 5 1C2.79086 1 1 2.79086 1 5C1 7.20914 2.79086 9 5 9ZM6.85355 4.35355C7.04882 4.15829 7.04882 3.84171 6.85355 3.64645C6.65829 3.45118 6.34171 3.45118 6.14645 3.64645L4.5 5.29289L3.85355 4.64645C3.65829 4.45118 3.34171 4.45118 3.14645 4.64645C2.95118 4.84171 2.95118 5.15829 3.14645 5.35355L4.14645 6.35355C4.34171 6.54882 4.65829 6.54882 4.85355 6.35355L6.85355 4.35355Z" fill="white"/>
</svg>
