<svg width="109" height="109" viewBox="0 0 109 109" fill="none" xmlns="http://www.w3.org/2000/svg">
<g id="Check Alt">
<path id="Icon" fill-rule="evenodd" clip-rule="evenodd" d="M54.5023 98.0996C78.582 98.0996 98.1023 78.5793 98.1023 54.4997C98.1023 30.42 78.582 10.8997 54.5023 10.8997C30.4227 10.8997 10.9023 30.42 10.9023 54.4997C10.9023 78.5793 30.4227 98.0996 54.5023 98.0996ZM74.7061 47.4534C76.8344 45.325 76.8344 41.8743 74.7061 39.7459C72.5777 37.6176 69.127 37.6176 66.9986 39.7459L49.0523 57.6922L42.0061 50.6459C39.8777 48.5176 36.427 48.5176 34.2986 50.6459C32.1703 52.7743 32.1703 56.225 34.2986 58.3534L45.1986 69.2534C47.327 71.3817 50.7777 71.3817 52.9061 69.2534L74.7061 47.4534Z" fill="#32802F"/>
</g>
</svg>
