<svg width="35" height="36" viewBox="0 0 35 36" fill="none" xmlns="http://www.w3.org/2000/svg">
<g filter="url(#filter0_i_459_15590)">
<path fill-rule="evenodd" clip-rule="evenodd" d="M17.5 35.5C27.165 35.5 35 27.665 35 18C35 8.33502 27.165 0.5 17.5 0.5C7.83502 0.5 0 8.33502 0 18C0 27.665 7.83502 35.5 17.5 35.5Z" fill="url(#paint0_radial_459_15590)"/>
</g>
<g filter="url(#filter1_d_459_15590)">
<path d="M17.5453 26.8946C15.0327 26.8946 13.0867 25.401 12.3502 24.7438C12.2165 24.6266 12.0746 24.5719 11.9275 24.5812C11.7577 24.5916 11.5947 24.6882 11.4192 24.8874L11.161 25.2303L11.1594 25.2332C10.808 25.7145 11.1262 25.9789 11.2717 26.0993C11.7107 26.5005 14.0753 28.5 17.5169 28.5C21.031 28.5 24 26.0763 24 23.2071C24 19.8747 21.5835 18.4005 17.407 16.9789C14.4664 16.0243 12.7645 15.0241 12.7645 12.7365C12.7645 11.0015 14.2249 9.13402 17.4314 9.13402C19.4503 9.13402 21.2158 10.2219 21.562 10.4481C22.08 10.7568 22.3678 10.3781 22.4732 10.2376L22.7018 9.86853C22.904 9.55219 22.842 9.22699 22.5307 8.99396C22.4428 8.93319 20.3412 7.5 17.4597 7.5C12.745 7.5 11.0334 10.6473 11.0334 12.7631C11.0334 16.302 13.6128 17.4953 16.7318 18.5904C20.2678 19.7805 22.1838 20.8776 22.1838 23.2639C22.1838 25.232 20.0595 26.8946 17.5453 26.8946Z" fill="white"/>
</g>
<defs>
<filter id="filter0_i_459_15590" x="-0.5" y="0" width="35.5" height="35.5" filterUnits="userSpaceOnUse" color-interpolation-filters="sRGB">
<feFlood flood-opacity="0" result="BackgroundImageFix"/>
<feBlend mode="normal" in="SourceGraphic" in2="BackgroundImageFix" result="shape"/>
<feColorMatrix in="SourceAlpha" type="matrix" values="0 0 0 0 0 0 0 0 0 0 0 0 0 0 0 0 0 0 127 0" result="hardAlpha"/>
<feOffset dx="-0.5" dy="-0.5"/>
<feGaussianBlur stdDeviation="0.25"/>
<feComposite in2="hardAlpha" operator="arithmetic" k2="-1" k3="1"/>
<feColorMatrix type="matrix" values="0 0 0 0 0 0 0 0 0 0 0 0 0 0 0 0 0 0 0.25 0"/>
<feBlend mode="normal" in2="shape" result="effect1_innerShadow_459_15590"/>
</filter>
<filter id="filter1_d_459_15590" x="10" y="6.5" width="14" height="22" filterUnits="userSpaceOnUse" color-interpolation-filters="sRGB">
<feFlood flood-opacity="0" result="BackgroundImageFix"/>
<feColorMatrix in="SourceAlpha" type="matrix" values="0 0 0 0 0 0 0 0 0 0 0 0 0 0 0 0 0 0 127 0" result="hardAlpha"/>
<feOffset dx="-0.5" dy="-0.5"/>
<feGaussianBlur stdDeviation="0.25"/>
<feComposite in2="hardAlpha" operator="out"/>
<feColorMatrix type="matrix" values="0 0 0 0 0 0 0 0 0 0 0 0 0 0 0 0 0 0 0.25 0"/>
<feBlend mode="normal" in2="BackgroundImageFix" result="effect1_dropShadow_459_15590"/>
<feBlend mode="normal" in="SourceGraphic" in2="effect1_dropShadow_459_15590" result="shape"/>
</filter>
<radialGradient id="paint0_radial_459_15590" cx="0" cy="0" r="1" gradientUnits="userSpaceOnUse" gradientTransform="translate(17.5 18) rotate(90) scale(17.5)">
<stop offset="0.595" stop-color="#FFB45E"/>
<stop offset="1" stop-color="#FD9B2A"/>
</radialGradient>
</defs>
</svg>
