<svg width="11" height="10" viewBox="0 0 11 10" fill="none" xmlns="http://www.w3.org/2000/svg">
<g id="Crown">
<path id="Vector" d="M8.87134 5.96917L8.95176 5.18C8.99467 4.75875 9.02259 4.48083 9.00051 4.30542H9.00884C9.37176 4.30542 9.66634 3.99458 9.66634 3.61125C9.66634 3.22792 9.37176 2.91667 9.00842 2.91667C8.64509 2.91667 8.35051 3.2275 8.35051 3.61125C8.35051 3.78458 8.41092 3.94333 8.51051 4.065C8.36759 4.15792 8.18051 4.35458 7.89884 4.65042C7.68217 4.87833 7.57384 4.99208 7.45301 5.01C7.38587 5.0197 7.31737 5.00956 7.25592 4.98083C7.14426 4.92917 7.06967 4.78833 6.92092 4.50625L6.13592 3.02083C6.04426 2.84708 5.96717 2.70167 5.89759 2.58458C6.18217 2.43125 6.37676 2.11917 6.37676 1.75958C6.37676 1.2475 5.98426 0.833332 5.49967 0.833332C5.01509 0.833332 4.62259 1.24792 4.62259 1.75917C4.62259 2.11917 4.81717 2.43125 5.10176 2.58417C5.03217 2.70167 4.95551 2.84708 4.86342 3.02083L4.07884 4.50667C3.92967 4.78833 3.85509 4.92917 3.74342 4.98125C3.68198 5.00997 3.61347 5.02011 3.54634 5.01042C3.42551 4.9925 3.31717 4.87833 3.10051 4.65042C2.81884 4.35458 2.63176 4.15792 2.48884 4.065C2.58884 3.94333 2.64884 3.78458 2.64884 3.61083C2.64884 3.22792 2.35384 2.91667 1.99051 2.91667C1.62801 2.91667 1.33301 3.2275 1.33301 3.61125C1.33301 3.99458 1.62759 4.30542 1.99092 4.30542H1.99884C1.97634 4.48042 2.00467 4.75875 2.04759 5.18L2.12801 5.96917C2.17259 6.40708 2.20967 6.82375 2.25551 7.19917H8.74384C8.78967 6.82417 8.82676 6.40708 8.87134 5.96917ZM5.02259 9.16667H5.97676C7.22051 9.16667 7.84259 9.16667 8.25759 8.775C8.43842 8.60333 8.55342 8.295 8.63592 7.89333H2.36342C2.44592 8.295 2.56051 8.60333 2.74176 8.77458C3.15676 9.16667 3.77884 9.16667 5.02259 9.16667Z" fill="white"/>
</g>
</svg>
