<svg width="48" height="48" viewBox="0 0 48 48" fill="none" xmlns="http://www.w3.org/2000/svg">
<g id="Crown">
<path id="Vector" d="M40.184 28.652L40.57 24.864C40.776 22.842 40.91 21.508 40.804 20.666H40.844C42.586 20.666 44 19.174 44 17.334C44 15.494 42.586 14 40.842 14C39.098 14 37.684 15.492 37.684 17.334C37.684 18.166 37.974 18.928 38.452 19.512C37.766 19.958 36.868 20.902 35.516 22.322C34.476 23.416 33.956 23.962 33.376 24.048C33.0538 24.0945 32.7249 24.0459 32.43 23.908C31.894 23.66 31.536 22.984 30.822 21.63L27.054 14.5C26.614 13.666 26.244 12.968 25.91 12.406C27.276 11.67 28.21 10.172 28.21 8.446C28.21 5.988 26.326 4 24 4C21.674 4 19.79 5.99 19.79 8.444C19.79 10.172 20.724 11.67 22.09 12.404C21.756 12.968 21.388 13.666 20.946 14.5L17.18 21.632C16.464 22.984 16.106 23.66 15.57 23.91C15.2751 24.0479 14.9462 24.0965 14.624 24.05C14.044 23.964 13.524 23.416 12.484 22.322C11.132 20.902 10.234 19.958 9.548 19.512C10.028 18.928 10.316 18.166 10.316 17.332C10.316 15.494 8.9 14 7.156 14C5.416 14 4 15.492 4 17.334C4 19.174 5.414 20.666 7.158 20.666H7.196C7.088 21.506 7.224 22.842 7.43 24.864L7.816 28.652C8.03 30.754 8.208 32.754 8.428 34.556H39.572C39.792 32.756 39.97 30.754 40.184 28.652ZM21.71 44H26.29C32.26 44 35.246 44 37.238 42.12C38.106 41.296 38.658 39.816 39.054 37.888H8.946C9.342 39.816 9.892 41.296 10.762 42.118C12.754 44 15.74 44 21.71 44Z" fill="url(#paint0_linear_232_3864)"/>
</g>
<defs>
<linearGradient id="paint0_linear_232_3864" x1="4" y1="24" x2="42.2491" y2="15.8164" gradientUnits="userSpaceOnUse">
<stop stop-color="#E3954D"/>
<stop offset="1" stop-color="#BD4400"/>
</linearGradient>
</defs>
</svg>
