<svg width="16" height="16" viewBox="0 0 16 16" fill="none" xmlns="http://www.w3.org/2000/svg">
<path fill-rule="evenodd" clip-rule="evenodd" d="M6.33398 2.66671C5.7817 2.66671 5.33398 3.11442 5.33398 3.66671C5.33398 4.21899 5.7817 4.66671 6.33398 4.66671H7.33398V3.66671C7.33398 3.11442 6.88627 2.66671 6.33398 2.66671ZM8.24244 2.3239C7.8201 1.72475 7.12275 1.33337 6.33398 1.33337C5.04532 1.33337 4.00065 2.37804 4.00065 3.66671C4.00065 4.02457 4.08121 4.36362 4.22519 4.66671H3.33398C2.22941 4.66671 1.33398 5.56214 1.33398 6.66671C1.33398 7.53752 1.89052 8.27835 2.66732 8.5529L2.66732 12.6667C2.66732 13.7713 3.56275 14.6667 4.66732 14.6667H11.334C12.4386 14.6667 13.334 13.7713 13.334 12.6667V8.5529C14.1108 8.27835 14.6673 7.53752 14.6673 6.66671C14.6673 5.56214 13.7719 4.66671 12.6673 4.66671H11.2202C11.2939 4.45819 11.334 4.2338 11.334 4.00004C11.334 2.89547 10.4386 2.00004 9.33398 2.00004C8.93124 2.00004 8.55631 2.11908 8.24244 2.3239ZM8.66732 4.00004V4.66669L9.33398 4.66671C9.70218 4.66671 10.0007 4.36823 10.0007 4.00004C10.0007 3.63185 9.70218 3.33337 9.33398 3.33337C8.96579 3.33337 8.66732 3.63185 8.66732 4.00004ZM7.33398 6.00004H3.33398C2.96579 6.00004 2.66732 6.29852 2.66732 6.66671C2.66732 7.0349 2.96579 7.33337 3.33398 7.33337H7.33398V6.00004ZM7.33398 8.66671H4.00065V12.6667C4.00065 13.0349 4.29913 13.3334 4.66732 13.3334H7.33398V8.66671ZM8.66732 13.3334V8.66671H12.0007V12.6667C12.0007 13.0349 11.7022 13.3334 11.334 13.3334H8.66732ZM8.66732 7.33337V6.00004H12.6673C13.0355 6.00004 13.334 6.29852 13.334 6.66671C13.334 7.0349 13.0355 7.33337 12.6673 7.33337H8.66732Z" fill="#A669A9"/>
</svg>
