<svg width="354" height="104" viewBox="0 0 354 104" fill="none" xmlns="http://www.w3.org/2000/svg">
<path d="M95.4805 90.0611H22.4174V12.644H95.4805V90.0611ZM96.1879 10.7222H21.7093C21.0994 10.7222 20.6035 11.2481 20.6035 11.8937V90.8107C20.6035 91.457 21.0994 91.9824 21.7093 91.9824H96.1879C96.7978 91.9824 97.2937 91.457 97.2937 90.8107V11.8937C97.2937 11.2481 96.7978 10.7222 96.1879 10.7222Z" fill="white"/>
<path d="M36.1151 66.3059C32.2448 66.3059 29.2474 63.8509 28.113 62.7707C27.907 62.5781 27.6884 62.4882 27.4617 62.5034C27.2001 62.5205 26.9491 62.6793 26.6789 63.0068L26.2812 63.5706C26.2807 63.5726 26.2795 63.5739 26.2787 63.5753C25.7375 64.3665 26.2276 64.8011 26.4516 64.9989C27.1279 65.6584 30.7703 68.945 36.0715 68.945C41.4846 68.945 46.0578 64.961 46.0578 60.245C46.0578 54.7673 42.3357 52.3443 35.9024 50.0077C31.3727 48.4386 28.7512 46.7945 28.7512 43.0343C28.7512 40.1824 31.0008 37.1128 35.9399 37.1128C39.0498 37.1128 41.7694 38.901 42.3026 39.2728C43.1003 39.7802 43.5436 39.1575 43.706 38.9267L44.0582 38.3201C44.3697 37.8001 44.2741 37.2656 43.7946 36.8825C43.6591 36.7827 40.4219 34.4268 35.9835 34.4268C28.7212 34.4268 26.0846 39.6002 26.0846 43.0779C26.0846 48.8948 30.0579 50.8564 34.8621 52.6564C40.3087 54.6125 43.2601 56.4159 43.2601 60.3381C43.2601 63.573 39.988 66.3059 36.1151 66.3059Z" fill="white"/>
<path d="M66.3333 68.9425C70.5358 68.9425 74.4585 67.2901 77.3779 64.2899C77.4385 64.227 77.4729 64.1411 77.4729 64.0517V63.2519C77.4729 63.1644 77.4397 63.0805 77.3809 63.0184L76.5913 62.1862C76.3434 61.9924 75.9264 61.9169 75.4982 62.2915C72.462 64.9721 69.6355 66.1674 66.3333 66.1674C58.8707 66.1674 52.7989 59.6909 52.7989 51.7304C52.7989 43.7204 58.8707 37.2036 66.3333 37.2036C69.7173 37.2036 72.8839 38.5081 75.4774 40.9625C75.5998 41.0928 75.7922 41.2688 76.0456 41.2934C76.2585 41.3144 76.4732 41.2185 76.6774 41.0022L77.3878 40.2023C77.4467 40.1368 77.4773 40.0482 77.4723 39.9576L77.4286 39.1141C77.4242 39.0267 77.3873 38.9454 77.3267 38.8872C74.1662 35.8449 70.6731 34.4277 66.3333 34.4277C57.3036 34.4277 49.957 42.1898 49.957 51.7304C49.957 61.3817 57.1507 68.9425 66.3333 68.9425Z" fill="white"/>
<path d="M84.9216 68.4735H85.8551C86.3133 68.4735 86.7872 68.1214 86.7872 67.5314V35.8388C86.7872 35.3274 86.3802 34.8948 85.8988 34.8948H84.9216C84.4402 34.8948 84.0332 35.3274 84.0332 35.8388V67.5314C84.0332 68.0422 84.4402 68.4735 84.9216 68.4735Z" fill="white"/>
<path d="M122.433 34.4746H104.637C104.155 34.4746 103.748 34.9074 103.748 35.4188V67.1093C103.748 67.6207 104.155 68.0533 104.637 68.0533H122.433C122.914 68.0533 123.321 67.6207 123.321 67.1093V66.3584C123.321 65.8464 122.914 65.4144 122.433 65.4144H106.502V52.1569H120.259C120.741 52.1569 121.147 51.7277 121.147 51.2189V50.419C121.147 49.9069 120.741 49.4743 120.259 49.4743H106.502V37.1602H122.433C122.914 37.1602 123.321 36.729 123.321 36.2183V35.4184C123.321 34.907 122.914 34.4742 122.433 34.4742V34.4746Z" fill="white"/>
<path d="M154.114 68.5251H154.691C155.293 68.5251 155.714 68.137 155.714 67.5806V35.4196C155.714 34.9082 155.307 34.4756 154.825 34.4756H153.936C153.454 34.4756 153.048 34.9082 153.048 35.4196V62.8114L132.26 34.1335C132.201 34.052 132.11 34.0038 132.013 34.0038H131.258C130.701 34.0038 130.281 34.4099 130.281 34.9485V67.1095C130.281 67.6215 130.688 68.0535 131.17 68.0535H132.013C132.494 68.0535 132.901 67.6215 132.901 67.1095V39.4431C153.665 68.5265 153.882 68.5251 154.114 68.5251H154.114Z" fill="white"/>
<path d="M178.65 68.5232C182.851 68.5232 186.773 66.8694 189.694 63.8667C189.755 63.8043 189.789 63.7186 189.789 63.6298V62.8299C189.789 62.7419 189.756 62.6573 189.697 62.5952L188.91 61.7675C188.599 61.5215 188.17 61.5613 187.815 61.8715C184.779 64.5522 181.952 65.7475 178.65 65.7475C171.187 65.7475 165.116 59.2711 165.116 51.3105C165.116 43.2985 171.187 36.781 178.65 36.781C182.036 36.781 185.202 38.0862 187.794 40.5433C187.928 40.6861 188.14 40.876 188.421 40.876H188.423C188.62 40.876 188.81 40.7788 188.993 40.5823L189.704 39.7824C189.763 39.7169 189.794 39.6283 189.789 39.5377L189.745 38.6917C189.741 38.6042 189.704 38.5229 189.643 38.4646C186.48 35.4222 182.986 34.0052 178.65 34.0052C169.62 34.0052 162.273 41.7684 162.273 51.3105C162.273 60.9624 169.467 68.5232 178.65 68.5232Z" fill="white"/>
<path d="M197.237 68.0535H215.032C215.515 68.0535 215.924 67.6209 215.924 67.109V66.3581C215.924 65.8467 215.515 65.4146 215.032 65.4146H199.105V52.1572H212.858C213.34 52.1572 213.747 51.7272 213.747 51.2186V50.4185C213.747 49.9071 213.34 49.4745 212.858 49.4745H199.105V37.1599H215.032C215.515 37.1599 215.924 36.7286 215.924 36.2185V35.4187C215.924 34.9073 215.515 34.4745 215.032 34.4745H197.237C196.755 34.4745 196.348 34.9073 196.348 35.4187V67.1086C196.348 67.6206 196.755 68.0532 197.237 68.0532V68.0535Z" fill="white"/>
<path d="M238.779 53.9412V37.7704H246.363C250.645 37.7704 254.128 41.3336 254.128 45.713C254.128 50.2498 250.665 53.9412 246.409 53.9412H238.779ZM236.957 68.4713H237.755C238.428 68.4713 238.778 67.9989 238.778 67.5325V56.764H246.541C252.22 56.764 256.841 51.8276 256.841 45.7599C256.841 39.7697 252.201 34.896 246.497 34.896H236.957C236.475 34.896 236.068 35.3286 236.068 35.84V67.5325C236.068 68.0421 236.475 68.4713 236.957 68.4713Z" fill="white"/>
<path d="M279.867 66.7788C279.867 66.5454 279.867 65.8369 278.978 65.8369H265.133V35.839C265.133 35.3357 264.739 34.8945 264.289 34.8945H263.312C262.831 34.8945 262.424 35.3271 262.424 35.839V67.5318C262.424 68.0419 262.831 68.4737 263.312 68.4737H278.978C279.492 68.4737 279.867 68.1166 279.867 67.625V66.779L279.867 66.7788Z" fill="white"/>
<path d="M288.413 56.9019L295.703 39.0151L302.866 56.9019H288.413ZM308.307 68.4724H309.463C309.769 68.4724 309.989 68.3776 310.114 68.1918C310.3 67.9186 310.192 67.5813 310.147 67.4443L296.606 34.7023C296.363 34.1922 295.9 34.1922 295.749 34.1922H295.617C295.561 34.1922 295.507 34.2076 295.459 34.2372L294.927 34.5655C294.871 34.6013 294.826 34.6543 294.799 34.7177L281.131 67.443C281.129 67.4483 281.126 67.4543 281.124 67.4595C280.992 67.8305 281.067 68.0653 281.154 68.1978C281.236 68.3228 281.401 68.4724 281.727 68.4724H282.97C283.394 68.4724 283.727 68.1687 283.877 67.8512L287.347 59.3987H303.888L307.408 67.8677C307.55 68.1689 307.883 68.4724 308.307 68.4724Z" fill="white"/>
<path d="M333.217 35.2989C333.095 35.0423 332.83 34.8948 332.488 34.8948H331.159C331.113 34.8948 331.068 34.9053 331.028 34.926L330.451 35.2105C330.404 35.2336 330.364 35.2687 330.333 35.313L320.288 49.5792L310.421 35.315C310.389 35.27 310.348 35.2336 310.3 35.2105L309.721 34.926C309.68 34.9053 309.635 34.8948 309.59 34.8948H308.259C307.919 34.8948 307.653 35.0416 307.531 35.2983C307.414 35.5478 307.458 35.8514 307.654 36.1284L318.909 52.2648V67.5319C318.909 67.8574 319.038 68.0591 319.146 68.1702C319.408 68.4395 319.819 68.4838 320.205 68.4838C320.304 68.4838 320.402 68.4812 320.495 68.4786C320.577 68.4759 320.656 68.4733 320.73 68.4733C321.212 68.4733 321.619 68.0426 321.619 67.5319V52.2177L333.095 36.1297C333.214 35.9606 333.277 35.7818 333.282 35.6116V35.5787C333.28 35.4809 333.259 35.3867 333.217 35.2987L333.217 35.2989Z" fill="white"/>
<path d="M27.3141 29.0143H27.3235C27.3552 29.0143 27.3871 29.009 27.4177 28.9991L27.7767 28.8782C27.8017 28.8701 27.8247 28.8589 27.8472 28.8444L36.8041 22.9638C37.0727 22.7118 37.2324 22.3633 37.253 21.9834C37.2737 21.6045 37.1543 21.2393 36.9028 20.9394L36.8442 20.8765C36.8222 20.8482 36.7953 20.8223 36.7641 20.8018L27.8472 14.9524C27.6356 14.8036 27.3816 14.7507 27.1336 14.8049C26.8863 14.8586 26.6742 15.0113 26.5349 15.2356C26.5174 15.2641 26.5043 15.2958 26.4949 15.3289L26.4 15.692C26.3837 15.7324 26.375 15.7761 26.375 15.8223V27.9794C26.375 27.9946 26.3762 28.0098 26.3782 28.025C26.3931 28.5597 26.8033 28.9983 27.3141 29.0141V29.0143Z" fill="white"/>
<path d="M190.517 81.6774C189.917 81.6774 189.43 82.2045 189.43 82.8516C189.43 83.4734 189.917 83.9788 190.517 83.9788C191.117 83.9788 191.604 83.4734 191.604 82.8516C191.604 82.2045 191.117 81.6774 190.517 81.6774Z" fill="white"/>
<path d="M148.21 90.061V81.3433L144.672 88.0268H143.907L140.356 81.3433V90.061H139.01V78.787H140.433L144.285 86.1095L148.151 78.787H149.557V90.061H148.21H148.21ZM216.318 93.6336H216.167C216.101 93.6319 216.035 93.6276 215.967 93.621C215.869 93.6075 215.75 93.585 215.61 93.5534V92.3157C215.741 92.3382 215.869 92.3517 216.001 92.3653C216.132 92.3743 216.23 92.3788 216.298 92.3788C216.421 92.3788 216.527 92.3517 216.625 92.2932C216.719 92.2346 216.812 92.1177 216.91 91.9511C217.003 91.7801 217.109 91.5461 217.228 91.2445C217.347 90.9429 217.496 90.5469 217.679 90.0608L214.366 81.7707H215.729L218.396 88.8051L220.826 81.7707H222.083L218.277 92.2344C218.137 92.6079 217.908 92.932 217.581 93.2156C217.269 93.4815 216.849 93.6208 216.318 93.6332L216.318 93.6336ZM153.827 90.2186C153.457 90.2186 153.113 90.1511 152.795 90.0206C152.476 89.8902 152.196 89.7055 151.962 89.4715C151.729 89.242 151.542 88.9674 151.41 88.6568C151.274 88.3462 151.206 88.0043 151.206 87.6306C151.206 87.2481 151.287 86.9015 151.448 86.5909C151.605 86.2803 151.835 86.0102 152.128 85.7897C152.421 85.5692 152.773 85.3937 153.177 85.2631C153.58 85.1372 154.022 85.0741 154.502 85.0741C154.88 85.0741 155.267 85.1101 155.657 85.1867C156.044 85.2633 156.388 85.3622 156.689 85.4883V84.8223C156.689 84.1427 156.511 83.6116 156.15 83.2246C155.789 82.8421 155.279 82.6484 154.621 82.6484C153.831 82.6484 153.003 82.9725 152.136 83.6161L151.699 82.7115C152.709 81.9914 153.725 81.6314 154.74 81.6314C155.772 81.6314 156.575 81.924 157.148 82.5045C157.721 83.0851 158.006 83.9087 158.006 84.9664V88.3464C158.006 88.675 158.146 88.8415 158.426 88.855V90.0612C158.286 90.0837 158.172 90.0972 158.083 90.1107C157.993 90.1197 157.896 90.1242 157.798 90.1242C157.539 90.1242 157.331 90.0432 157.178 89.8767C157.021 89.7147 156.927 89.5167 156.897 89.2827L156.868 88.6975C156.519 89.1926 156.078 89.5706 155.542 89.8271C155.007 90.0882 154.434 90.2186 153.827 90.2186H153.827ZM154.171 89.1699C154.642 89.1699 155.08 89.0753 155.483 88.8908C155.887 88.7064 156.197 88.4633 156.405 88.1572C156.596 87.9547 156.689 87.7477 156.689 87.5362V86.312C156.048 86.0465 155.386 85.916 154.697 85.916C154.039 85.916 153.5 86.0645 153.088 86.3616C152.671 86.6587 152.463 87.0456 152.463 87.5227C152.463 87.7522 152.506 87.9682 152.591 88.1707C152.676 88.3732 152.794 88.5442 152.952 88.6928C153.109 88.8413 153.291 88.9584 153.5 89.044C153.708 89.1296 153.933 89.1699 154.171 89.1699ZM165.635 90.061L162.937 86.0104L161.438 87.5047V90.061H160.117V78.4719H161.438V86.0915L165.452 81.7889H166.909L163.791 85.2182L167.057 90.0608H165.634L165.635 90.061ZM171.249 90.2185C170.658 90.2185 170.123 90.1058 169.635 89.8763C169.146 89.6513 168.726 89.3407 168.377 88.9492C168.025 88.5577 167.753 88.1032 167.558 87.5766C167.362 87.05 167.265 86.4965 167.265 85.9158C167.265 85.3352 167.362 84.7817 167.558 84.2641C167.753 83.7465 168.029 83.2875 168.382 82.896C168.734 82.5045 169.159 82.1984 169.647 81.9689C170.136 81.7438 170.675 81.6312 171.266 81.6312C171.856 81.6312 172.391 81.7483 172.876 81.9779C173.36 82.2119 173.772 82.5225 174.111 82.905C174.451 83.292 174.715 83.742 174.901 84.2551C175.084 84.7727 175.178 85.3038 175.178 85.8528C175.178 85.9699 175.173 86.0733 175.169 86.1679C175.165 86.2625 175.156 86.3389 175.148 86.3929H168.658C168.687 86.8069 168.781 87.1806 168.929 87.518C169.078 87.8556 169.273 88.148 169.516 88.3911C169.753 88.6386 170.025 88.8276 170.331 88.9627C170.633 89.1022 170.955 89.1697 171.295 89.1697C171.537 89.1697 171.771 89.1337 172 89.0661C172.23 88.9986 172.446 88.9087 172.646 88.7916C172.846 88.6745 173.02 88.5305 173.177 88.3595C173.33 88.1931 173.449 88.0041 173.529 87.7924L174.668 88.1255C174.536 88.4316 174.362 88.7107 174.137 88.9625C173.912 89.2191 173.648 89.4396 173.355 89.6241C173.062 89.8086 172.735 89.9572 172.374 90.0606C172.013 90.1642 171.639 90.2181 171.248 90.2181L171.249 90.2185ZM173.933 85.3624C173.903 84.9709 173.81 84.6062 173.657 84.2733C173.5 83.9402 173.304 83.6568 173.071 83.4228C172.837 83.1932 172.565 83.0088 172.255 82.8781C171.945 82.7477 171.614 82.6801 171.266 82.6801C170.913 82.6801 170.586 82.7477 170.276 82.8781C169.966 83.0086 169.694 83.1932 169.46 83.4318C169.227 83.6703 169.036 83.9539 168.891 84.2823C168.747 84.6109 168.658 84.9709 168.628 85.3624H173.933ZM184.484 89.647C184.403 89.6875 184.301 89.7371 184.169 89.7954C184.038 89.854 183.893 89.9125 183.728 89.9709C183.562 90.0295 183.384 90.079 183.188 90.1194C182.993 90.1554 182.789 90.1734 182.581 90.1734C182.101 90.1734 181.689 90.034 181.341 89.7504C180.988 89.4713 180.814 89.0348 180.814 88.4408V82.8691H179.748V81.771H180.814V79.0122H182.131V81.771H183.885V82.8691H182.131V88.0133C182.152 88.3194 182.245 88.5399 182.415 88.6793C182.585 88.8188 182.785 88.8863 183.014 88.8863C183.273 88.8863 183.511 88.8413 183.728 88.7514C183.944 88.6613 184.089 88.5894 184.169 88.5354L184.484 89.647ZM185.711 90.061V81.7709H187.032V90.061H185.711ZM185.711 80.2182V78.4719H187.032V80.2182H185.711ZM200.951 90.061H199.63V85.4254C199.63 84.5569 199.498 83.9177 199.235 83.5037C198.967 83.0897 198.577 82.8826 198.059 82.8826C197.519 82.8826 197.035 83.0851 196.614 83.4947C196.19 83.9042 195.888 84.4308 195.705 85.0743V90.061H194.389V85.4254C194.389 84.5389 194.257 83.8908 193.998 83.4856C193.739 83.0851 193.348 82.8826 192.83 82.8826C192.299 82.8826 191.819 83.0806 191.39 83.4766C190.961 83.8771 190.655 84.4037 190.477 85.0608V90.061H189.156V81.7709H190.358V83.553C190.677 82.9365 191.093 82.4639 191.602 82.1308C192.108 81.7977 192.681 81.6312 193.323 81.6312C193.981 81.6312 194.503 81.8202 194.89 82.1939C195.276 82.5674 195.51 83.0534 195.599 83.6476C196.3 82.302 197.294 81.6314 198.581 81.6314C199.031 81.6314 199.409 81.717 199.715 81.8925C200.017 82.0679 200.259 82.311 200.441 82.6216C200.62 82.9322 200.752 83.3012 200.832 83.7242C200.913 84.1517 200.951 84.6107 200.951 85.1058V90.061ZM206.464 90.2185C205.874 90.2185 205.339 90.1058 204.85 89.8763C204.362 89.6513 203.941 89.3407 203.593 88.9492C203.24 88.5577 202.969 88.1032 202.773 87.5766C202.578 87.05 202.48 86.4965 202.48 85.9158C202.48 85.3352 202.578 84.7817 202.773 84.2641C202.969 83.7465 203.245 83.2875 203.597 82.896C203.95 82.5045 204.374 82.1984 204.863 81.9689C205.351 81.7438 205.891 81.6312 206.481 81.6312C207.072 81.6312 207.607 81.7483 208.091 81.9779C208.575 82.2119 208.987 82.5225 209.327 82.905C209.667 83.292 209.93 83.742 210.117 84.2551C210.3 84.7727 210.393 85.3038 210.393 85.8528C210.393 85.9699 210.389 86.0733 210.385 86.1679C210.38 86.2625 210.372 86.3389 210.363 86.3929H203.873C203.903 86.8069 203.996 87.1806 204.145 87.518C204.294 87.8556 204.489 88.148 204.731 88.3911C204.969 88.6386 205.241 88.8276 205.547 88.9627C205.848 89.1022 206.171 89.1697 206.511 89.1697C206.753 89.1697 206.987 89.1337 207.216 89.0661C207.445 88.9986 207.662 88.9087 207.862 88.7916C208.061 88.6745 208.235 88.5305 208.393 88.3595C208.545 88.1931 208.664 88.0041 208.745 87.7924L209.883 88.1255C209.752 88.4316 209.577 88.7107 209.352 88.9625C209.127 89.2191 208.864 89.4396 208.571 89.6241C208.278 89.8086 207.951 89.9572 207.59 90.0606C207.229 90.1642 206.855 90.2181 206.464 90.2181L206.464 90.2185ZM209.149 85.3624C209.119 84.9709 209.026 84.6062 208.873 84.2733C208.715 83.9402 208.52 83.6568 208.286 83.4228C208.053 83.1932 207.781 83.0088 207.471 82.8781C207.161 82.7477 206.83 82.6801 206.481 82.6801C206.129 82.6801 205.802 82.7477 205.491 82.8781C205.181 83.0086 204.91 83.1932 204.676 83.4318C204.442 83.6703 204.251 83.9539 204.107 84.2823C203.963 84.6109 203.873 84.9709 203.844 85.3624H209.149ZM226.549 90.2185C225.959 90.2185 225.424 90.1013 224.939 89.8673C224.451 89.6378 224.039 89.3227 223.695 88.9312C223.351 88.5397 223.083 88.0852 222.892 87.5676C222.701 87.05 222.608 86.5055 222.608 85.9339C222.608 85.3532 222.705 84.7997 222.901 84.2821C223.096 83.7645 223.368 83.3055 223.712 82.914C224.056 82.5225 224.468 82.2119 224.952 81.9779C225.436 81.7483 225.967 81.6312 226.549 81.6312C227.127 81.6312 227.662 81.7483 228.151 81.9779C228.639 82.2119 229.06 82.5225 229.403 82.914C229.747 83.3055 230.019 83.7645 230.215 84.2821C230.406 84.7997 230.504 85.3532 230.504 85.9339C230.504 86.5055 230.41 87.05 230.219 87.5676C230.028 88.0852 229.76 88.5397 229.412 88.9312C229.06 89.3227 228.643 89.6378 228.159 89.8673C227.675 90.1013 227.14 90.2185 226.549 90.2185ZM223.958 85.9474C223.958 86.3839 224.026 86.7844 224.162 87.1535C224.294 87.527 224.481 87.8466 224.714 88.1212C224.948 88.3958 225.224 88.6163 225.538 88.7737C225.853 88.9312 226.188 89.0123 226.549 89.0123C226.91 89.0123 227.246 88.9312 227.56 88.7737C227.874 88.6163 228.15 88.3958 228.392 88.1122C228.63 87.8331 228.817 87.5047 228.953 87.131C229.089 86.7576 229.157 86.3524 229.157 85.9158C229.157 85.4928 229.089 85.0923 228.953 84.7187C228.817 84.3452 228.63 84.0166 228.392 83.733C228.15 83.4539 227.874 83.2334 227.56 83.0759C227.246 82.9185 226.91 82.8374 226.549 82.8374C226.188 82.8374 225.853 82.9185 225.538 83.0805C225.224 83.2469 224.948 83.4674 224.714 83.7465C224.481 84.0301 224.294 84.3585 224.162 84.7322C224.026 85.1101 223.958 85.5153 223.958 85.9474ZM234.517 90.2185C233.698 90.2185 233.082 89.9259 232.661 89.3454C232.241 88.7647 232.033 87.8962 232.033 86.744V81.7709H233.349V86.474C233.349 88.1662 233.906 89.0123 235.014 89.0123C235.554 89.0123 236.059 88.8278 236.535 88.4631C237.011 88.0987 237.363 87.5991 237.592 86.9644V81.7707H238.909V88.346C238.909 88.6746 239.049 88.8411 239.33 88.8546V90.0608C239.181 90.0833 239.062 90.0968 238.977 90.1013C238.892 90.1059 238.812 90.1104 238.731 90.1104C238.472 90.1104 238.255 90.0293 238.081 89.8628C237.907 89.6963 237.813 89.4938 237.801 89.2508L237.771 88.2832C237.423 88.9087 236.964 89.3857 236.395 89.7189C235.821 90.052 235.197 90.2185 234.517 90.2185H234.517ZM245.247 82.9951C244.588 83.0176 244.006 83.1976 243.501 83.5352C242.995 83.8728 242.639 84.3454 242.431 84.9484V90.061H241.11V81.7709H242.341V83.6926C242.609 83.121 242.966 82.6574 243.403 82.302C243.841 81.9465 244.312 81.7483 244.813 81.708C244.911 81.708 244.996 81.708 245.068 81.708C245.141 81.708 245.2 81.7125 245.247 81.726V82.9952V82.9951ZM255.517 90.061L252.819 86.0104L251.32 87.5047V90.061H249.999V78.4719H251.32V86.0915L255.334 81.7889H256.791L253.673 85.2182L256.939 90.0608H255.516L255.517 90.061ZM264.865 90.061H263.544V85.4254C263.544 84.5389 263.417 83.8908 263.162 83.4856C262.907 83.0851 262.521 82.8826 262.002 82.8826C261.735 82.8826 261.463 82.9367 261.196 83.0491C260.924 83.1617 260.669 83.3147 260.431 83.5037C260.189 83.6972 259.981 83.9222 259.802 84.1877C259.62 84.4533 259.484 84.7414 259.395 85.0608V90.061H258.074V81.7709H259.276V83.553C259.586 82.9724 260.032 82.5043 260.618 82.1533C261.2 81.8067 261.837 81.6312 262.525 81.6312C262.975 81.6312 263.349 81.7168 263.651 81.8923C263.952 82.0678 264.19 82.3108 264.373 82.6214C264.551 82.932 264.679 83.301 264.755 83.724C264.827 84.1515 264.865 84.6106 264.865 85.1056V90.0608L264.865 90.061ZM270.332 90.2185C269.741 90.2185 269.206 90.1013 268.722 89.8673C268.233 89.6378 267.821 89.3227 267.477 88.9312C267.133 88.5397 266.866 88.0852 266.675 87.5676C266.484 87.05 266.39 86.5055 266.39 85.9339C266.39 85.3532 266.488 84.7997 266.683 84.2821C266.879 83.7645 267.15 83.3055 267.494 82.914C267.838 82.5225 268.251 82.2119 268.735 81.9779C269.219 81.7483 269.75 81.6312 270.332 81.6312C270.909 81.6312 271.445 81.7483 271.933 81.9779C272.422 82.2119 272.842 82.5225 273.186 82.914C273.53 83.3055 273.802 83.7645 273.997 84.2821C274.188 84.7997 274.286 85.3532 274.286 85.9339C274.286 86.5055 274.193 87.05 274.001 87.5676C273.81 88.0852 273.543 88.5397 273.194 88.9312C272.842 89.3227 272.426 89.6378 271.942 89.8673C271.457 90.1013 270.922 90.2185 270.332 90.2185ZM267.741 85.9474C267.741 86.3839 267.809 86.7844 267.945 87.1535C268.076 87.527 268.263 87.8466 268.497 88.1212C268.731 88.3958 269.007 88.6163 269.321 88.7737C269.635 88.9312 269.971 89.0123 270.332 89.0123C270.693 89.0123 271.028 88.9312 271.342 88.7737C271.657 88.6163 271.933 88.3958 272.175 88.1122C272.413 87.8331 272.6 87.5047 272.736 87.131C272.871 86.7576 272.939 86.3524 272.939 85.9158C272.939 85.4928 272.871 85.0923 272.736 84.7187C272.6 84.3452 272.413 84.0166 272.175 83.733C271.933 83.4539 271.657 83.2334 271.342 83.0759C271.028 82.9185 270.693 82.8374 270.332 82.8374C269.971 82.8374 269.635 82.9185 269.321 83.0805C269.006 83.2469 268.731 83.4674 268.497 83.7465C268.263 84.0301 268.076 84.3585 267.945 84.7322C267.809 85.1101 267.741 85.5153 267.741 85.9474ZM285.421 81.7709H286.695L283.365 90.061H282.273L280.698 86.0104L279.143 90.061H278.047L274.721 81.7709H275.979L278.676 88.6793L279.997 85.2365L278.646 81.7891H279.742L280.698 84.44L281.658 81.7891H282.753L281.42 85.2365L282.736 88.6793L285.421 81.7709ZM287.952 78.4719H289.269V87.9187C289.269 88.2248 289.346 88.4633 289.503 88.6388C289.656 88.8143 289.872 88.8999 290.153 88.8999C290.263 88.8999 290.395 88.8818 290.543 88.8458C290.692 88.8098 290.832 88.7647 290.964 88.7109L291.172 89.8405C290.951 89.9351 290.692 90.0115 290.395 90.079C290.093 90.1421 289.83 90.1736 289.6 90.1736C289.091 90.1736 288.687 90.0206 288.394 89.71C288.101 89.4039 287.952 88.9764 287.952 88.4273V78.4719ZM295.666 90.2185C295.075 90.2185 294.54 90.1058 294.052 89.8763C293.563 89.6513 293.143 89.3407 292.794 88.9492C292.442 88.5577 292.17 88.1032 291.975 87.5766C291.779 87.05 291.682 86.4965 291.682 85.9158C291.682 85.3352 291.779 84.7817 291.975 84.2641C292.17 83.7465 292.446 83.2875 292.799 82.896C293.151 82.5045 293.576 82.1984 294.064 81.9689C294.553 81.7438 295.092 81.6312 295.683 81.6312C296.273 81.6312 296.808 81.7483 297.293 81.9779C297.777 82.2119 298.189 82.5225 298.529 82.905C298.868 83.292 299.132 83.742 299.318 84.2551C299.501 84.7727 299.595 85.3038 299.595 85.8528C299.595 85.9699 299.59 86.0733 299.586 86.1679C299.582 86.2625 299.573 86.3389 299.565 86.3929H293.075C293.104 86.8069 293.198 87.1806 293.347 87.518C293.495 87.8556 293.691 88.148 293.933 88.3911C294.171 88.6386 294.442 88.8276 294.748 88.9627C295.05 89.1022 295.372 89.1697 295.712 89.1697C295.954 89.1697 296.188 89.1337 296.417 89.0661C296.647 88.9986 296.863 88.9087 297.063 88.7916C297.263 88.6745 297.437 88.5305 297.594 88.3595C297.747 88.1931 297.866 88.0041 297.947 87.7924L299.085 88.1255C298.953 88.4316 298.779 88.7107 298.554 88.9625C298.329 89.2191 298.065 89.4396 297.772 89.6241C297.479 89.8086 297.152 89.9572 296.791 90.0606C296.43 90.1642 296.056 90.2181 295.666 90.2181L295.666 90.2185ZM298.35 85.3624C298.32 84.9709 298.227 84.6062 298.074 84.2733C297.917 83.9402 297.722 83.6568 297.488 83.4228C297.254 83.1932 296.982 83.0088 296.673 82.8781C296.362 82.7477 296.031 82.6801 295.683 82.6801C295.33 82.6801 295.003 82.7477 294.693 82.8781C294.383 83.0086 294.111 83.1932 293.878 83.4318C293.644 83.6703 293.453 83.9539 293.308 84.2823C293.164 84.6109 293.075 84.9709 293.045 85.3624H298.35ZM304.284 90.2185C303.744 90.2185 303.243 90.1013 302.785 89.8673C302.326 89.6378 301.931 89.3227 301.604 88.9312C301.272 88.5397 301.013 88.0852 300.831 87.5676C300.648 87.05 300.554 86.5055 300.554 85.9339C300.554 85.3532 300.644 84.7997 300.818 84.2731C300.992 83.7465 301.234 83.2875 301.548 82.896C301.863 82.5045 302.237 82.1984 302.674 81.9689C303.107 81.7438 303.583 81.6312 304.105 81.6312C304.734 81.6312 305.295 81.8067 305.792 82.1533C306.284 82.5045 306.675 82.9275 306.964 83.4226V78.4719H308.285V88.3462C308.285 88.6748 308.425 88.8413 308.705 88.8548V90.061C308.565 90.0835 308.451 90.097 308.366 90.1105C308.281 90.1195 308.2 90.1241 308.119 90.1241C307.86 90.1241 307.631 90.0295 307.44 89.845C307.244 89.6605 307.147 89.449 307.147 89.2014V88.5039C306.836 89.044 306.425 89.4625 305.911 89.7641C305.397 90.0657 304.853 90.2186 304.284 90.2186V90.2185ZM304.598 89.0123C304.84 89.0123 305.087 88.9627 305.342 88.8683C305.596 88.7737 305.834 88.6433 306.059 88.4723C306.285 88.3059 306.48 88.1079 306.646 87.8783C306.811 87.6488 306.917 87.4103 306.964 87.1537V84.7729C306.875 84.5073 306.743 84.2553 306.565 84.0168C306.382 83.7782 306.183 83.5757 305.958 83.4003C305.733 83.2248 305.49 83.0896 305.236 82.9862C304.981 82.8871 304.73 82.8378 304.479 82.8378C304.089 82.8378 303.736 82.9234 303.422 83.0988C303.107 83.2743 302.84 83.5038 302.615 83.7964C302.39 84.089 302.216 84.4219 302.097 84.7956C301.978 85.1736 301.918 85.5563 301.918 85.9477C301.918 86.3617 301.986 86.7579 302.126 87.1314C302.266 87.5049 302.454 87.8335 302.695 88.1081C302.938 88.3826 303.218 88.6031 303.545 88.7651C303.868 88.9316 304.22 89.0126 304.598 89.0126V89.0123ZM313.603 90.1554C313.072 90.1554 312.588 90.0383 312.142 89.8043C311.696 89.5747 311.318 89.2596 310.999 88.8681C310.681 88.4767 310.43 88.0266 310.256 87.518C310.082 87.0094 309.992 86.4828 309.992 85.9339C309.992 85.3532 310.082 84.7997 310.256 84.2731C310.43 83.7465 310.681 83.2875 310.999 82.896C311.318 82.5045 311.696 82.1984 312.142 81.9689C312.588 81.7438 313.08 81.6312 313.62 81.6312C314.278 81.6312 314.847 81.8022 315.327 82.1398C315.807 82.4775 316.211 82.905 316.542 83.4226V81.7709H317.71V89.9664C317.71 90.5559 317.604 91.078 317.396 91.528C317.188 91.9781 316.903 92.3561 316.542 92.6667C316.181 92.9728 315.761 93.2068 315.276 93.3642C314.792 93.5217 314.274 93.6028 313.722 93.6028C312.834 93.6028 312.116 93.4408 311.56 93.1212C311.004 92.7971 310.541 92.3471 310.171 91.7756L310.936 91.06C311.246 91.5506 311.649 91.915 312.138 92.1581C312.626 92.4011 313.153 92.5225 313.722 92.5225C314.083 92.5225 314.423 92.4685 314.75 92.3651C315.077 92.257 315.357 92.0995 315.599 91.888C315.837 91.6765 316.028 91.4109 316.173 91.0913C316.317 90.7717 316.389 90.3982 316.389 89.9662V88.5035C316.241 88.76 316.066 88.9896 315.862 89.1966C315.654 89.4036 315.434 89.579 315.196 89.7187C314.954 89.8626 314.699 89.9707 314.431 90.0428C314.159 90.1194 313.883 90.1554 313.603 90.1554ZM314.011 89.0123C314.287 89.0123 314.559 88.9582 314.817 88.8548C315.077 88.7512 315.319 88.6073 315.54 88.4318C315.756 88.2563 315.943 88.0583 316.092 87.8378C316.24 87.6173 316.342 87.3878 316.389 87.1537V84.7729C316.283 84.4893 316.139 84.2283 315.965 83.9942C315.79 83.7647 315.591 83.5577 315.374 83.3822C315.153 83.2068 314.915 83.0716 314.661 82.9772C314.406 82.8826 314.147 82.8378 313.887 82.8378C313.488 82.8378 313.131 82.9279 312.817 83.1079C312.503 83.2878 312.235 83.5264 312.019 83.819C311.798 84.116 311.628 84.4535 311.509 84.8271C311.386 85.2051 311.326 85.5833 311.326 85.9658C311.326 86.3753 311.399 86.7669 311.539 87.1359C311.679 87.5094 311.866 87.8335 312.108 88.1081C312.346 88.3826 312.626 88.6031 312.953 88.7651C313.276 88.9316 313.628 89.0126 314.011 89.0126V89.0123ZM323.295 90.2185C322.705 90.2185 322.17 90.1058 321.681 89.8763C321.193 89.6513 320.772 89.3407 320.424 88.9492C320.072 88.5577 319.8 88.1032 319.605 87.5766C319.409 87.05 319.311 86.4965 319.311 85.9158C319.311 85.3352 319.409 84.7817 319.605 84.2641C319.8 83.7465 320.076 83.2875 320.428 82.896C320.781 82.5045 321.206 82.1984 321.694 81.9689C322.183 81.7438 322.722 81.6312 323.312 81.6312C323.903 81.6312 324.438 81.7483 324.922 81.9779C325.407 82.2119 325.819 82.5225 326.158 82.905C326.498 83.292 326.761 83.742 326.948 84.2551C327.131 84.7727 327.224 85.3038 327.224 85.8528C327.224 85.9699 327.22 86.0733 327.216 86.1679C327.212 86.2625 327.203 86.3389 327.195 86.3929H320.704C320.734 86.8069 320.828 87.1806 320.976 87.518C321.125 87.8556 321.32 88.148 321.562 88.3911C321.8 88.6386 322.072 88.8276 322.378 88.9627C322.679 89.1022 323.002 89.1697 323.342 89.1697C323.584 89.1697 323.818 89.1337 324.047 89.0661C324.277 88.9986 324.493 88.9087 324.693 88.7916C324.892 88.6745 325.067 88.5305 325.224 88.3595C325.377 88.1931 325.496 88.0041 325.576 87.7924L326.715 88.1255C326.583 88.4316 326.409 88.7107 326.184 88.9625C325.958 89.2191 325.695 89.4396 325.402 89.6241C325.109 89.8086 324.782 89.9572 324.421 90.0606C324.06 90.1642 323.686 90.2181 323.295 90.2181L323.295 90.2185ZM325.98 85.3624C325.95 84.9709 325.857 84.6062 325.704 84.2733C325.547 83.9402 325.351 83.6568 325.118 83.4228C324.884 83.1932 324.612 83.0088 324.302 82.8781C323.992 82.7477 323.661 82.6801 323.312 82.6801C322.96 82.6801 322.633 82.7477 322.323 82.8781C322.013 83.0086 321.741 83.1932 321.507 83.4318C321.274 83.6703 321.083 83.9539 320.938 84.2823C320.794 84.6109 320.705 84.9709 320.675 85.3624H325.98Z" fill="white"/>
</svg>
