<svg width="32" height="33" viewBox="0 0 32 33" fill="none" xmlns="http://www.w3.org/2000/svg">
<g id="Medal">
<path id="Vector" d="M15.9997 9.83334C18.8286 9.83334 21.5418 10.9571 23.5421 12.9575C25.5425 14.9579 26.6663 17.671 26.6663 20.5C26.6663 23.329 25.5425 26.0421 23.5421 28.0425C21.5418 30.0429 18.8286 31.1667 15.9997 31.1667C13.1707 31.1667 10.4576 30.0429 8.4572 28.0425C6.45681 26.0421 5.33301 23.329 5.33301 20.5C5.33301 17.671 6.45681 14.9579 8.4572 12.9575C10.4576 10.9571 13.1707 9.83334 15.9997 9.83334ZM15.9997 12.5C13.8779 12.5 11.8431 13.3429 10.3428 14.8432C8.84253 16.3434 7.99967 18.3783 7.99967 20.5C7.99967 22.6217 8.84253 24.6566 10.3428 26.1569C11.8431 27.6572 13.8779 28.5 15.9997 28.5C18.1214 28.5 20.1562 27.6572 21.6565 26.1569C23.1568 24.6566 23.9997 22.6217 23.9997 20.5C23.9997 18.3783 23.1568 16.3434 21.6565 14.8432C20.1562 13.3429 18.1214 12.5 15.9997 12.5ZM15.9997 14.5L17.7623 18.0733L21.7063 18.6467L18.853 21.4267L19.5263 25.3547L15.9997 23.5L12.473 25.3533L13.1463 21.4267L10.293 18.6453L14.237 18.072L15.9997 14.5ZM23.9997 3.16668V7.16668L22.1823 8.68401C20.6743 7.89279 19.0278 7.39979 17.333 7.23201V3.16668H23.9997ZM14.6663 3.16534V7.23201C12.9721 7.39954 11.3261 7.89208 9.81834 8.68268L7.99967 7.16668V3.16668L14.6663 3.16534Z" fill="url(#paint0_linear_685_15057)"/>
</g>
<defs>
<linearGradient id="paint0_linear_685_15057" x1="5.33301" y1="17.166" x2="26.1142" y2="13.7786" gradientUnits="userSpaceOnUse">
<stop stop-color="#296A2F"/>
<stop offset="1" stop-color="#ADBF7A"/>
</linearGradient>
</defs>
</svg>
