<svg width="64" height="64" viewBox="0 0 64 64" fill="none" xmlns="http://www.w3.org/2000/svg">
<g id="Money">
<path id="Icon (Stroke)" fill-rule="evenodd" clip-rule="evenodd" d="M5.33301 18.6667C5.33301 14.2484 8.91473 10.6667 13.333 10.6667H39.9997C44.418 10.6667 47.9997 14.2484 47.9997 18.6667V21.3333H50.6663C55.0846 21.3333 58.6663 24.915 58.6663 29.3333V45.3333C58.6663 49.7516 55.0846 53.3333 50.6663 53.3333H23.9997C19.5814 53.3333 15.9997 49.7516 15.9997 45.3333V42.6667H13.333C8.91473 42.6667 5.33301 39.0849 5.33301 34.6667V18.6667ZM21.333 45.3333C21.333 46.8061 22.5269 48 23.9997 48H50.6663C52.1391 48 53.333 46.8061 53.333 45.3333V29.3333C53.333 27.8606 52.1391 26.6667 50.6663 26.6667H23.9997C22.5269 26.6667 21.333 27.8606 21.333 29.3333V45.3333ZM42.6663 21.3333H23.9997C19.5814 21.3333 15.9997 24.915 15.9997 29.3333V37.3333H13.333C11.8602 37.3333 10.6663 36.1394 10.6663 34.6667V18.6667C10.6663 17.1939 11.8602 16 13.333 16H39.9997C41.4724 16 42.6663 17.1939 42.6663 18.6667V21.3333ZM37.333 34.6667C35.8602 34.6667 34.6663 35.8606 34.6663 37.3333C34.6663 38.8061 35.8602 40 37.333 40C38.8058 40 39.9997 38.8061 39.9997 37.3333C39.9997 35.8606 38.8058 34.6667 37.333 34.6667ZM29.333 37.3333C29.333 32.915 32.9147 29.3333 37.333 29.3333C41.7513 29.3333 45.333 32.915 45.333 37.3333C45.333 41.7516 41.7513 45.3333 37.333 45.3333C32.9147 45.3333 29.333 41.7516 29.333 37.3333Z" fill="#559753"/>
</g>
</svg>
