<svg width="12" height="12" viewBox="0 0 12 12" fill="none" xmlns="http://www.w3.org/2000/svg">
<g id="News">
<path id="Icon (Stroke)" fill-rule="evenodd" clip-rule="evenodd" d="M1 3C1 2.17157 1.67157 1.5 2.5 1.5L7.5 1.5C8.32843 1.5 9 2.17157 9 3L9.5 3C10.3284 3 11 3.67157 11 4.5V9C11 9.82843 10.3284 10.5 9.5 10.5H2.5C1.67157 10.5 1 9.82843 1 9L1 3ZM8.08535 9.5H2.5C2.22386 9.5 2 9.27614 2 9L2 3C2 2.72386 2.22386 2.5 2.5 2.5L7.5 2.5C7.77614 2.5 8 2.72386 8 3L8 9C8 9.17532 8.03008 9.34361 8.08535 9.5ZM9 4L9 9C9 9.27614 9.22386 9.5 9.5 9.5C9.77614 9.5 10 9.27614 10 9V4.5C10 4.22386 9.77614 4 9.5 4H9ZM3 4C3 3.72386 3.22386 3.5 3.5 3.5H6.5C6.77614 3.5 7 3.72386 7 4V6C7 6.27614 6.77614 6.5 6.5 6.5H3.5C3.22386 6.5 3 6.27614 3 6V4ZM4 4.5V5.5H6V4.5H4ZM3 8C3 7.72386 3.22386 7.5 3.5 7.5H6.5C6.77614 7.5 7 7.72386 7 8C7 8.27614 6.77614 8.5 6.5 8.5H3.5C3.22386 8.5 3 8.27614 3 8Z" fill="#A669A9"/>
</g>
</svg>
