<svg width="12" height="12" viewBox="0 0 12 12" fill="none" xmlns="http://www.w3.org/2000/svg">
<g id="Play">
<path id="Icon" fill-rule="evenodd" clip-rule="evenodd" d="M5.99922 10.8C8.65019 10.8 10.7992 8.65092 10.7992 5.99995C10.7992 3.34898 8.65019 1.19995 5.99922 1.19995C3.34825 1.19995 1.19922 3.34898 1.19922 5.99995C1.19922 8.65092 3.34825 10.8 5.99922 10.8ZM5.73204 4.30072C5.54792 4.17798 5.3112 4.16654 5.1161 4.27095C4.92101 4.37536 4.79922 4.57867 4.79922 4.79995V7.19995C4.79922 7.42123 4.92101 7.62455 5.1161 7.72896C5.3112 7.83337 5.54792 7.82192 5.73204 7.69918L7.53204 6.49918C7.69896 6.3879 7.79922 6.20056 7.79922 5.99995C7.79922 5.79934 7.69896 5.612 7.53204 5.50072L5.73204 4.30072Z" fill="#6A646B"/>
</g>
</svg>
