<svg width="10" height="10" viewBox="0 0 10 10" fill="none" xmlns="http://www.w3.org/2000/svg">
<g id="Playlist">
<mask id="mask0_2848_935" style="mask-type:alpha" maskUnits="userSpaceOnUse" x="0" y="0" width="10" height="10">
<rect id="Text input" width="10" height="10" fill="#D9D9D9"/>
</mask>
<g mask="url(#mask0_2848_935)">
<path id="subscriptions" d="M1.79422 8.95833C1.58375 8.95833 1.4056 8.88541 1.25977 8.73958C1.11393 8.59374 1.04102 8.41559 1.04102 8.20512V4.29489C1.04102 4.08442 1.11393 3.90626 1.25977 3.76043C1.4056 3.6146 1.58375 3.54168 1.79422 3.54168H8.20445C8.41493 3.54168 8.59308 3.6146 8.73891 3.76043C8.88475 3.90626 8.95766 4.08442 8.95766 4.29489V8.20512C8.95766 8.41559 8.88475 8.59374 8.73891 8.73958C8.59308 8.88541 8.41493 8.95833 8.20445 8.95833H1.79422ZM4.56105 7.52563L6.24532 6.40706C6.30248 6.36806 6.33106 6.31571 6.33106 6.25C6.33106 6.1843 6.30248 6.13195 6.24532 6.09295L4.56105 4.97438C4.49694 4.93111 4.43244 4.92657 4.36754 4.96075C4.30263 4.99494 4.27018 5.0497 4.27018 5.12502V7.37499C4.27018 7.45031 4.30263 7.50507 4.36754 7.53925C4.43244 7.57344 4.49694 7.5689 4.56105 7.52563ZM2.08267 2.96475C1.994 2.96475 1.91975 2.93484 1.85992 2.87501C1.8001 2.81518 1.77018 2.74093 1.77018 2.65225C1.77018 2.56359 1.8001 2.48934 1.85992 2.4295C1.91975 2.36968 1.994 2.33976 2.08267 2.33976H7.91601C8.00468 2.33976 8.07893 2.36968 8.13876 2.4295C8.19858 2.48934 8.2285 2.56359 8.2285 2.65225C8.2285 2.74093 8.19858 2.81518 8.13876 2.87501C8.07893 2.93484 8.00468 2.96475 7.91601 2.96475H2.08267ZM3.33267 1.76283C3.244 1.76283 3.16975 1.73291 3.10992 1.67309C3.0501 1.61326 3.02018 1.53901 3.02018 1.45034C3.02018 1.36166 3.0501 1.28741 3.10992 1.22759C3.16975 1.16776 3.244 1.13785 3.33267 1.13785H6.66601C6.75468 1.13785 6.82893 1.16776 6.88876 1.22759C6.94858 1.28741 6.9785 1.36166 6.9785 1.45034C6.9785 1.53901 6.94858 1.61326 6.88876 1.67309C6.82893 1.73291 6.75468 1.76283 6.66601 1.76283H3.33267Z" fill="#6A646B"/>
</g>
</g>
</svg>
