<svg width="11" height="10" viewBox="0 0 11 10" fill="none" xmlns="http://www.w3.org/2000/svg">
<g id="Playlist">
<mask id="mask0_1979_8609" style="mask-type:alpha" maskUnits="userSpaceOnUse" x="0" y="0" width="11" height="10">
<rect id="Text input" x="0.5" width="10" height="10" fill="#D9D9D9"/>
</mask>
<g mask="url(#mask0_1979_8609)">
<path id="subscriptions" d="M2.2952 8.95833C2.08473 8.95833 1.90658 8.88541 1.76074 8.73958C1.61491 8.59374 1.54199 8.41559 1.54199 8.20512V4.29489C1.54199 4.08442 1.61491 3.90626 1.76074 3.76043C1.90658 3.6146 2.08473 3.54168 2.2952 3.54168H8.70543C8.9159 3.54168 9.09406 3.6146 9.23989 3.76043C9.38572 3.90626 9.45864 4.08442 9.45864 4.29489V8.20512C9.45864 8.41559 9.38572 8.59374 9.23989 8.73958C9.09406 8.88541 8.9159 8.95833 8.70543 8.95833H2.2952ZM5.06202 7.52563L6.74629 6.40706C6.80345 6.36806 6.83203 6.31571 6.83203 6.25C6.83203 6.1843 6.80345 6.13195 6.74629 6.09295L5.06202 4.97438C4.99792 4.93111 4.93342 4.92657 4.86851 4.96075C4.80361 4.99494 4.77116 5.0497 4.77116 5.12502V7.37499C4.77116 7.45031 4.80361 7.50507 4.86851 7.53925C4.93342 7.57344 4.99792 7.5689 5.06202 7.52563ZM2.58365 2.96475C2.49497 2.96475 2.42072 2.93484 2.3609 2.87501C2.30107 2.81518 2.27116 2.74093 2.27116 2.65225C2.27116 2.56359 2.30107 2.48934 2.3609 2.4295C2.42072 2.36968 2.49497 2.33976 2.58365 2.33976H8.41698C8.50566 2.33976 8.57991 2.36968 8.63973 2.4295C8.69956 2.48934 8.72947 2.56359 8.72947 2.65225C8.72947 2.74093 8.69956 2.81518 8.63973 2.87501C8.57991 2.93484 8.50566 2.96475 8.41698 2.96475H2.58365ZM3.83365 1.76283C3.74497 1.76283 3.67072 1.73291 3.6109 1.67309C3.55107 1.61326 3.52116 1.53901 3.52116 1.45034C3.52116 1.36166 3.55107 1.28741 3.6109 1.22759C3.67072 1.16776 3.74497 1.13785 3.83365 1.13785H7.16698C7.25566 1.13785 7.32991 1.16776 7.38973 1.22759C7.44956 1.28741 7.47947 1.36166 7.47947 1.45034C7.47947 1.53901 7.44956 1.61326 7.38973 1.67309C7.32991 1.73291 7.25566 1.76283 7.16698 1.76283H3.83365Z" fill="white"/>
</g>
</g>
</svg>
