<svg width="24" height="24" viewBox="0 0 24 24" fill="none" xmlns="http://www.w3.org/2000/svg">
<path d="M20.9193 11.0397C20.9355 10.8446 20.8747 10.6509 20.75 10.5C20.6253 10.3491 20.4465 10.2529 20.2519 10.232C20.0572 10.2111 19.8621 10.2672 19.7082 10.3882C19.5544 10.5092 19.4539 10.6856 19.4283 10.8797L20.9193 11.0397ZM13.088 20.25H10.912V21.75H13.088V20.25ZM5.058 14.013L4.875 12.308L3.384 12.468L3.567 14.173L5.058 14.013ZM9.415 11.299L11.205 8.091L9.895 7.36L8.105 10.569L9.415 11.299ZM12.795 8.091L14.585 11.299L15.895 10.569L14.105 7.36L12.795 8.091ZM14.585 11.299C14.747 11.589 14.895 11.859 15.04 12.064C15.189 12.275 15.39 12.509 15.701 12.646L16.306 11.273C16.362 11.297 16.352 11.323 16.267 11.202C16.1336 10.9966 16.0095 10.7854 15.895 10.569L14.585 11.299ZM16.941 10.714C16.683 10.972 16.529 11.124 16.408 11.221C16.293 11.314 16.291 11.287 16.351 11.279L16.556 12.765C16.892 12.718 17.151 12.549 17.352 12.387C17.547 12.229 17.764 12.011 18 11.777L16.941 10.714ZM15.701 12.646C15.97 12.764 16.266 12.805 16.556 12.765L16.351 11.279C16.3357 11.2812 16.3202 11.2791 16.306 11.273L15.701 12.646ZM6.001 11.776C6.236 12.011 6.453 12.229 6.648 12.386C6.849 12.55 7.108 12.718 7.444 12.765L7.649 11.279C7.709 11.287 7.707 11.314 7.592 11.221C7.4069 11.06 7.22905 10.8908 7.059 10.714L6.001 11.776ZM8.105 10.569C7.99015 10.7854 7.86569 10.9967 7.732 11.202C7.648 11.322 7.638 11.297 7.694 11.272L8.298 12.646C8.608 12.509 8.812 12.276 8.96 12.064C9.104 11.858 9.253 11.589 9.415 11.299L8.105 10.569ZM7.444 12.765C7.734 12.805 8.03 12.765 8.298 12.646L7.694 11.272C7.67985 11.2781 7.66427 11.2812 7.649 11.279L7.444 12.765ZM10.912 20.25C9.474 20.25 8.467 20.249 7.699 20.15C6.951 20.055 6.529 19.877 6.212 19.594L5.212 20.712C5.842 21.276 6.602 21.522 7.508 21.638C8.394 21.751 9.514 21.75 10.912 21.75V20.25ZM3.567 14.173C3.715 15.551 3.833 16.9 4.033 17.994C4.134 18.546 4.262 19.066 4.438 19.517C4.613 19.965 4.855 20.392 5.212 20.712L6.212 19.594C6.096 19.49 5.964 19.3 5.835 18.971C5.68781 18.5664 5.57867 18.1489 5.509 17.724C5.321 16.702 5.211 15.444 5.058 14.013L3.567 14.173ZM19.4283 10.8797C19.2743 12.3107 18.678 16.702 18.492 17.723C18.399 18.23 18.292 18.645 18.165 18.971C18.036 19.3 17.904 19.491 17.788 19.594L18.788 20.712C19.145 20.392 19.387 19.965 19.562 19.517C19.738 19.066 19.866 18.546 19.967 17.994C20.167 16.9 20.7713 12.4167 20.9193 11.0397L19.4283 10.8797ZM13.088 21.75C14.486 21.75 15.606 21.751 16.492 21.638C17.399 21.522 18.158 21.276 18.788 20.712L17.788 19.594C17.471 19.877 17.049 20.054 16.301 20.15C15.533 20.249 14.526 20.25 13.088 20.25V21.75ZM10.75 5C10.75 4.31 11.31 3.75 12 3.75V2.25C11.2707 2.25 10.5712 2.53973 10.0555 3.05546C9.53973 3.57118 9.25 4.27065 9.25 5H10.75ZM12 3.75C12.69 3.75 13.25 4.31 13.25 5H14.75C14.75 4.27065 14.4603 3.57118 13.9445 3.05546C13.4288 2.53973 12.7293 2.25 12 2.25V3.75ZM20.75 9C20.75 9.19891 20.671 9.38968 20.5303 9.53033C20.3897 9.67098 20.1989 9.75 20 9.75V11.25C20.5967 11.25 21.169 11.0129 21.591 10.591C22.0129 10.169 22.25 9.59674 22.25 9H20.75ZM19.25 9C19.25 8.80109 19.329 8.61032 19.4697 8.46967C19.6103 8.32902 19.8011 8.25 20 8.25V6.75C19.4033 6.75 18.831 6.98705 18.409 7.40901C17.9871 7.83097 17.75 8.40326 17.75 9H19.25ZM20 8.25C20.1989 8.25 20.3897 8.32902 20.5303 8.46967C20.671 8.61032 20.75 8.80109 20.75 9H22.25C22.25 8.40326 22.0129 7.83097 21.591 7.40901C21.169 6.98705 20.5967 6.75 20 6.75V8.25ZM4 9.75C3.80109 9.75 3.61032 9.67098 3.46967 9.53033C3.32902 9.38968 3.25 9.19891 3.25 9H1.75C1.75 9.59674 1.98705 10.169 2.40901 10.591C2.83097 11.0129 3.40326 11.25 4 11.25V9.75ZM3.25 9C3.25 8.80109 3.32902 8.61032 3.46967 8.46967C3.61032 8.32902 3.80109 8.25 4 8.25V6.75C3.40326 6.75 2.83097 6.98705 2.40901 7.40901C1.98705 7.83097 1.75 8.40326 1.75 9H3.25ZM4 8.25C4.19891 8.25 4.38968 8.32902 4.53033 8.46967C4.67098 8.61032 4.75 8.80109 4.75 9H6.25C6.25 8.40326 6.01295 7.83097 5.59099 7.40901C5.16903 6.98705 4.59674 6.75 4 6.75V8.25ZM20 9.75C19.997 9.75001 19.994 9.75001 19.991 9.75L19.974 11.25H20V9.75ZM19.991 9.75C19.8847 9.74894 19.7798 9.7252 19.6834 9.68036C19.587 9.63552 19.5013 9.57062 19.432 9.49L18.297 10.47C18.703 10.94 19.303 11.242 19.974 11.25L19.991 9.75ZM19.432 9.49C19.3141 9.35405 19.2494 9.17997 19.25 9H17.75C17.75 9.561 17.957 10.076 18.297 10.47L19.432 9.49ZM18 11.777C18.677 11.102 19.026 10.762 19.258 10.618L18.471 9.342C18.051 9.602 17.547 10.11 16.941 10.714L18 11.777ZM4.75 9C4.75059 9.17997 4.68593 9.35405 4.568 9.49L5.703 10.47C6.043 10.076 6.25 9.561 6.25 9H4.75ZM7.059 10.714C6.453 10.11 5.949 9.601 5.529 9.342L4.742 10.618C4.974 10.762 5.322 11.102 6 11.777L7.059 10.714ZM4.568 9.49C4.49869 9.57062 4.41297 9.63552 4.31657 9.68036C4.22017 9.7252 4.11531 9.74894 4.009 9.75L4.026 11.25C4.34484 11.2462 4.65923 11.1748 4.94835 11.0403C5.23747 10.9058 5.4947 10.7114 5.703 10.47L4.568 9.49ZM4.009 9.75C4.006 9.75001 4.003 9.75001 4 9.75V11.25H4.026L4.009 9.75ZM4.875 12.308C4.83226 11.9367 4.79592 11.5646 4.766 11.192C4.74607 10.9952 4.74439 10.7971 4.761 10.6L3.274 10.4C3.2431 10.6985 3.24176 10.9993 3.27 11.298C3.293 11.626 3.335 12.018 3.384 12.468L4.875 12.308ZM13.25 5C13.25 5.485 12.974 5.907 12.567 6.115L13.248 7.451C13.7001 7.22076 14.0797 6.86995 14.3447 6.43738C14.6098 6.00481 14.7501 5.50734 14.75 5H13.25ZM12.567 6.115C12.397 6.201 12.206 6.25 12 6.25V7.75C12.4342 7.75038 12.8623 7.64756 13.249 7.45L12.567 6.115ZM14.105 7.36C13.899 6.99 13.714 6.657 13.544 6.385L12.272 7.18C12.418 7.414 12.582 7.711 12.795 8.091L14.105 7.36ZM12 6.25C11.794 6.25 11.602 6.2 11.433 6.115L10.752 7.451C11.127 7.642 11.552 7.75 12 7.75V6.25ZM11.433 6.115C11.2273 6.01031 11.0546 5.85073 10.9341 5.65393C10.8135 5.45712 10.7498 5.23079 10.75 5H9.25C9.25009 5.50717 9.39044 6.00443 9.65551 6.43681C9.92059 6.86918 10.3001 7.21984 10.752 7.45L11.433 6.115ZM11.205 8.091C11.417 7.709 11.582 7.414 11.728 7.181L10.456 6.385C10.286 6.657 10.101 6.99 9.895 7.36L11.205 8.091Z" fill="black"/>
<path d="M5 17.5H19" stroke="black" stroke-width="1.5" stroke-linecap="round"/>
</svg>
