<svg width="25" height="24" viewBox="0 0 25 24" fill="none" xmlns="http://www.w3.org/2000/svg">
<path fill-rule="evenodd" clip-rule="evenodd" d="M10.35 4.9C8.83827 4.9 7.38845 5.50053 6.31949 6.56949C5.25053 7.63845 4.65 9.08827 4.65 10.6C4.65 11.3485 4.79743 12.0897 5.08389 12.7813C5.37034 13.4729 5.7902 14.1012 6.31949 14.6305C6.84879 15.1598 7.47715 15.5797 8.1687 15.8661C8.86026 16.1526 9.60146 16.3 10.35 16.3C11.0985 16.3 11.8397 16.1526 12.5313 15.8661C13.2229 15.5797 13.8512 15.1598 14.3805 14.6305C14.9098 14.1012 15.3297 13.4729 15.6161 12.7813C15.9026 12.0897 16.05 11.3485 16.05 10.6C16.05 9.08827 15.4495 7.63845 14.3805 6.56949C13.3116 5.50053 11.8617 4.9 10.35 4.9ZM4.97599 5.22599C6.40126 3.80071 8.33435 3 10.35 3C12.3656 3 14.2987 3.80071 15.724 5.22599C17.1493 6.65126 17.95 8.58435 17.95 10.6C17.95 11.598 17.7534 12.5863 17.3715 13.5084C17.1113 14.1364 16.7687 14.7254 16.3536 15.2601L21.4718 20.3782C21.8428 20.7492 21.8428 21.3508 21.4718 21.7218C21.1008 22.0928 20.4992 22.0928 20.1282 21.7218L15.0101 16.6036C14.4754 17.0187 13.8864 17.3613 13.2584 17.6215C12.3363 18.0034 11.348 18.2 10.35 18.2C9.35195 18.2 8.36368 18.0034 7.44161 17.6215C6.51953 17.2395 5.68171 16.6797 4.97599 15.974C4.27026 15.2683 3.71045 14.4305 3.32852 13.5084C2.94658 12.5863 2.75 11.598 2.75 10.6C2.75 8.58435 3.55071 6.65126 4.97599 5.22599Z" fill="#9D979E"/>
</svg>
