<svg width="16" height="16" viewBox="0 0 16 16" fill="none" xmlns="http://www.w3.org/2000/svg">
<g id="Share">
<path id="Icon (Stroke)" fill-rule="evenodd" clip-rule="evenodd" d="M12.0007 2.66659C11.2643 2.66659 10.6673 3.26354 10.6673 3.99992C10.6673 4.2155 10.718 4.41734 10.8075 4.59593C11.0272 5.03452 11.4796 5.33325 12.0007 5.33325C12.737 5.33325 13.334 4.7363 13.334 3.99992C13.334 3.26354 12.737 2.66659 12.0007 2.66659ZM9.33398 3.99992C9.33398 2.52716 10.5279 1.33325 12.0007 1.33325C13.4734 1.33325 14.6673 2.52716 14.6673 3.99992C14.6673 5.47268 13.4734 6.66659 12.0007 6.66659C11.1974 6.66659 10.4778 6.31138 9.98945 5.75087L6.60858 7.44131C6.64708 7.62172 6.66732 7.80865 6.66732 7.99992C6.66732 8.19119 6.64708 8.37812 6.60858 8.55853L9.98945 10.249C10.4779 9.68845 11.1974 9.33325 12.0007 9.33325C13.4734 9.33325 14.6673 10.5272 14.6673 11.9999C14.6673 13.4727 13.4734 14.6666 12.0007 14.6666C10.5279 14.6666 9.33398 13.4727 9.33398 11.9999C9.33398 11.8086 9.35422 11.6217 9.39273 11.4413L6.01185 9.75087C5.52345 10.3114 4.80389 10.6666 4.00065 10.6666C2.52789 10.6666 1.33398 9.47268 1.33398 7.99992C1.33398 6.52716 2.52789 5.33325 4.00065 5.33325C4.80389 5.33325 5.52345 5.68845 6.01185 6.24896L9.39273 4.55853C9.35422 4.37812 9.33398 4.19119 9.33398 3.99992ZM4.00065 6.66659C3.26427 6.66659 2.66732 7.26354 2.66732 7.99992C2.66732 8.7363 3.26427 9.33325 4.00065 9.33325C4.52167 9.33325 4.97413 9.03452 5.19384 8.59593C5.28332 8.41734 5.33398 8.2155 5.33398 7.99992C5.33398 7.78433 5.28332 7.5825 5.19384 7.4039C4.97413 6.96532 4.52167 6.66659 4.00065 6.66659ZM12.0007 10.6666C11.4796 10.6666 11.0272 10.9653 10.8075 11.4039C10.718 11.5825 10.6673 11.7843 10.6673 11.9999C10.6673 12.7363 11.2643 13.3333 12.0007 13.3333C12.737 13.3333 13.334 12.7363 13.334 11.9999C13.334 11.2635 12.737 10.6666 12.0007 10.6666Z" fill="#383438"/>
</g>
</svg>
