<svg width="12" height="13" viewBox="0 0 12 13" fill="none" xmlns="http://www.w3.org/2000/svg">
<g id="Sound">
<path id="Icon (Stroke)" fill-rule="evenodd" clip-rule="evenodd" d="M4.79289 2.52436C5.42286 1.89439 6.5 2.34056 6.5 3.23147V10.2315C6.5 11.1224 5.42286 11.5685 4.79289 10.9386L2.58579 8.73147H2C1.44772 8.73147 1 8.28375 1 7.73147V5.73147C1 5.17918 1.44772 4.73147 2 4.73147H2.58579L4.79289 2.52436ZM5.5 3.23147L3.14645 5.58502C3.05268 5.67879 2.9255 5.73147 2.79289 5.73147H2V7.73147H2.79289C2.9255 7.73147 3.05268 7.78414 3.14645 7.87791L5.5 10.2315V3.23147ZM8.82845 3.19588C9.02372 3.00062 9.3403 3.00062 9.53556 3.19588C11.4882 5.1485 11.4882 8.31433 9.53556 10.2669C9.3403 10.4622 9.02372 10.4622 8.82845 10.2669C8.63319 10.0717 8.63319 9.7551 8.82845 9.55984C10.3906 7.99774 10.3906 5.46508 8.82845 3.90299C8.63319 3.70772 8.63319 3.39114 8.82845 3.19588ZM7.41421 4.61013C7.60947 4.41486 7.92605 4.41486 8.12131 4.61013C9.29289 5.7817 9.29289 7.68119 8.12131 8.85277C7.92605 9.04803 7.60947 9.04803 7.41421 8.85277C7.21895 8.6575 7.21895 8.34092 7.41421 8.14566C8.19526 7.36461 8.19526 6.09828 7.41421 5.31723C7.21895 5.12197 7.21895 4.80539 7.41421 4.61013Z" fill="white"/>
</g>
</svg>
