<svg width="12" height="12" viewBox="0 0 12 12" fill="none" xmlns="http://www.w3.org/2000/svg">
<g id="Star">
<path id="Icon" d="M5.42436 1.91244C5.60555 1.36252 6.39445 1.36252 6.57564 1.91244L7.22301 3.87726C7.30404 4.12319 7.53643 4.2897 7.79865 4.2897H9.89358C10.4799 4.2897 10.7237 5.02961 10.2493 5.36947L8.55451 6.5838C8.34237 6.73579 8.2536 7.00521 8.33463 7.25114L8.982 9.21596C9.16319 9.76588 8.52495 10.2232 8.0506 9.8833L6.35576 8.66897C6.14363 8.51698 5.85637 8.51698 5.64424 8.66897L3.9494 9.8833C3.47505 10.2232 2.83681 9.76588 3.018 9.21596L3.66537 7.25114C3.7464 7.00521 3.65763 6.73579 3.44549 6.5838L1.75066 5.36947C1.27631 5.02961 1.52009 4.2897 2.10642 4.2897H4.20135C4.46357 4.2897 4.69596 4.12319 4.77699 3.87726L5.42436 1.91244Z" fill="#FFB45E"/>
</g>
</svg>
