<svg width="40" height="40" viewBox="0 0 40 40" fill="none" xmlns="http://www.w3.org/2000/svg">
<g id="Student">
<path id="Vector (Stroke)" fill-rule="evenodd" clip-rule="evenodd" d="M19.1912 5.20974C19.6946 4.93009 20.3067 4.93009 20.8101 5.20974L35.8101 13.5431C36.3392 13.837 36.6673 14.3947 36.6673 15C36.6673 15.6053 36.3392 16.163 35.8101 16.4569L32.3095 18.4017C33.3662 21.725 33.6126 25.2607 33.0181 28.7113C32.8906 29.4513 32.284 30.0147 31.5367 30.0872C27.663 30.4632 24.0108 32.0674 21.1134 34.6658C20.4802 35.2336 19.5211 35.2336 18.8879 34.6658C17.7057 33.6056 16.3979 32.7109 15.0007 31.9976V33.3333C15.0007 34.2538 14.2545 35 13.334 35C12.4135 35 11.6673 34.2538 11.6673 33.3333V30.6902C10.6257 30.3957 9.55466 30.1929 8.46616 30.0872C7.7189 30.0146 7.11243 29.4513 6.98488 28.7115C6.39003 25.2611 6.6363 21.7255 7.69315 18.4024L4.19125 16.4569C3.66214 16.163 3.33398 15.6053 3.33398 15C3.33398 14.3947 3.66214 13.837 4.19125 13.5431L19.1912 5.20974ZM10.6768 20.06C10.0553 22.2941 9.85965 24.6276 10.1024 26.938C10.6288 27.0219 11.1507 27.1252 11.6673 27.2473V20.8333C11.6673 20.7608 11.672 20.6889 11.6813 20.618L10.6768 20.06ZM15.0007 22.4622V28.3276C16.7843 29.0704 18.4671 30.0523 20.0007 31.2519C22.881 28.9989 26.2879 27.5139 29.9004 26.9379C30.143 24.6274 29.9473 22.2938 29.3258 20.0596L20.8101 24.7903C20.81 24.7903 20.8101 24.7903 20.8101 24.7903C20.3067 25.0699 19.6946 25.0699 19.1912 24.7903C19.1912 24.7903 19.1913 24.7903 19.1912 24.7903L15.0007 22.4622ZM20.0007 21.4267L31.5688 15L20.0007 8.57327L8.43253 15L10.5096 16.1539C10.5215 16.1602 10.5333 16.1666 10.5451 16.1731L14.4177 18.3248L19.1913 15.673C19.996 15.226 21.0106 15.516 21.4576 16.3207C21.9046 17.1253 21.6147 18.14 20.81 18.587L17.8495 20.2315L20.0007 21.4267Z" fill="url(#paint0_linear_462_15672)"/>
</g>
<defs>
<linearGradient id="paint0_linear_462_15672" x1="3.33398" y1="20.0458" x2="34.8945" y2="12.5659" gradientUnits="userSpaceOnUse">
<stop stop-color="#618F71"/>
<stop offset="1" stop-color="#325E42"/>
</linearGradient>
</defs>
</svg>
