<svg width="102" height="101" viewBox="0 0 102 101" fill="none" xmlns="http://www.w3.org/2000/svg">
<g id="Text input container">
<path id="path20" d="M99.3755 98.5958H3.18419V2.4045H99.3755V98.5958ZM100.307 0.0174863H2.25124C1.449 0.0174863 0.795532 0.670129 0.795532 1.4732V99.5279C0.795532 100.331 1.449 100.983 2.25124 100.983H100.307C101.109 100.983 101.762 100.331 101.762 99.5279V1.4732C101.762 0.670129 101.109 0.0174863 100.307 0.0174863Z" fill="white"/>
<g id="Text input">
<path id="path24" d="M21.2172 69.0804C16.1218 69.0804 12.1755 66.0301 10.682 64.6878C10.4107 64.4486 10.123 64.3368 9.82465 64.3557C9.48024 64.3771 9.14981 64.5744 8.7939 64.9813L8.2703 65.6816C8.26948 65.684 8.26783 65.6857 8.26701 65.6873C7.55436 66.6704 8.19961 67.2104 8.4947 67.4562C9.38489 68.2757 14.1803 72.3593 21.1596 72.3593C28.2861 72.3593 34.3071 67.4094 34.3071 61.5495C34.3071 54.7436 29.4065 51.7327 20.9369 48.8295C14.9735 46.8798 11.522 44.8372 11.522 40.1651C11.522 36.6216 14.4836 32.8076 20.9862 32.8076C25.0805 32.8076 28.661 35.0294 29.3629 35.4914C30.4134 36.1218 30.997 35.3483 31.2107 35.0615L31.6743 34.3077C32.0845 33.6616 31.9587 32.9975 31.3274 32.5216C31.1491 32.3975 26.8872 29.4704 21.0437 29.4704C11.4826 29.4704 8.01138 35.8982 8.01138 40.2193C8.01138 47.4469 13.2424 49.8841 19.5675 52.1207C26.7384 54.5513 30.6238 56.7919 30.6238 61.6654C30.6238 65.6849 26.3159 69.0804 21.2172 69.0804Z" fill="white"/>
</g>
<g id="Text input_2">
<path id="path28" d="M61.002 72.3562C66.5347 72.3562 71.6991 70.3029 75.5427 66.5753C75.6224 66.4972 75.6676 66.3904 75.6676 66.2794V65.2856C75.6676 65.1771 75.624 65.0727 75.5468 64.9955L74.507 63.9614C74.1807 63.7206 73.6316 63.6269 73.0677 64.0921C69.0705 67.4228 65.3494 68.9081 61.002 68.9081C51.1769 68.9081 43.1833 60.8609 43.1833 50.9702C43.1833 41.0177 51.1769 32.9205 61.002 32.9205C65.4571 32.9205 69.6261 34.5414 73.0406 37.5909C73.2017 37.7528 73.4549 37.9715 73.7886 38.0019C74.0689 38.0282 74.3516 37.909 74.6204 37.6402L75.5558 36.6465C75.6331 36.5651 75.6734 36.4549 75.6668 36.3423L75.6093 35.2943C75.6035 35.1858 75.555 35.0847 75.4753 35.0124C71.3144 31.2321 66.7155 29.4715 61.002 29.4715C49.1138 29.4715 39.4417 39.1157 39.4417 50.9702C39.4417 62.9619 48.9124 72.3562 61.002 72.3562Z" fill="white"/>
</g>
<g id="Text input_3">
<path id="path32" d="M85.4734 71.7735H86.7022C87.3056 71.7735 87.9294 71.3362 87.9294 70.603V31.2247C87.9294 30.5894 87.3935 30.0518 86.7598 30.0518H85.4734C84.8396 30.0518 84.3037 30.5894 84.3037 31.2247V70.603C84.3037 71.2375 84.8396 71.7735 85.4734 71.7735Z" fill="white"/>
</g>
<g id="Text input_4">
<path id="path36" d="M9.63005 22.7454H9.64237C9.6843 22.7454 9.72622 22.7388 9.76649 22.7265L10.2391 22.576C10.272 22.5662 10.3024 22.5522 10.332 22.5341L22.124 15.2276C22.4775 14.9144 22.6879 14.4813 22.715 14.0094C22.7421 13.5384 22.5852 13.0847 22.2539 12.7124L22.1766 12.6343C22.1479 12.5989 22.1125 12.5669 22.0714 12.5414L10.332 5.27352C10.0534 5.08857 9.71882 5.02282 9.3925 5.09022C9.06699 5.1568 8.78752 5.34667 8.60422 5.62532C8.58121 5.66067 8.56395 5.70012 8.55162 5.74122L8.42668 6.19248C8.40531 6.24262 8.3938 6.29687 8.3938 6.35441V21.4598C8.3938 21.4787 8.39544 21.4976 8.39791 21.5165C8.41764 22.1807 8.95767 22.7256 9.63005 22.7454Z" fill="white"/>
</g>
</g>
</svg>
