<svg width="12" height="12" viewBox="0 0 12 12" fill="none" xmlns="http://www.w3.org/2000/svg">
<g id="Trend">
<path id="Icon (Stroke)" fill-rule="evenodd" clip-rule="evenodd" d="M6.5 4C6.22386 4 6 3.77614 6 3.5C6 3.22386 6.22386 3 6.5 3H10.5C10.7761 3 11 3.22386 11 3.5V7.5C11 7.77614 10.7761 8 10.5 8C10.2239 8 10 7.77614 10 7.5V4.70711L6.85355 7.85355C6.65829 8.04882 6.34171 8.04882 6.14645 7.85355L4.5 6.20711L1.85355 8.85355C1.65829 9.04882 1.34171 9.04882 1.14645 8.85355C0.951184 8.65829 0.951184 8.34171 1.14645 8.14645L4.14645 5.14645C4.34171 4.95118 4.65829 4.95118 4.85355 5.14645L6.5 6.79289L9.29289 4H6.5Z" fill="white"/>
</g>
</svg>
